<svg viewBox="0 0 330 200" xmlns="http://www.w3.org/2000/svg"><g><g><g><g><g><line x1="34" y1="178" x2="29" y2="178" style="visibility: inherit;" fill="rgb(0, 0, 0)" stroke="rgb(204, 204, 204)" stroke-width="1px"></line><line x1="34" y1="164.30769230769232" x2="29" y2="164.30769230769232" style="visibility: inherit;" fill="rgb(0, 0, 0)" stroke="rgb(204, 204, 204)" stroke-width="1px"></line><line x1="34" y1="150.6153846153846" x2="29" y2="150.6153846153846" style="visibility: inherit;" fill="rgb(0, 0, 0)" stroke="rgb(204, 204, 204)" stroke-width="1px"></line><line x1="34" y1="136.9230769230769" x2="29" y2="136.9230769230769" style="visibility: inherit;" fill="rgb(0, 0, 0)" stroke="rgb(204, 204, 204)" stroke-width="1px"></line><line x1="34" y1="123.23076923076923" x2="29" y2="123.23076923076923" style="visibility: inherit;" fill="rgb(0, 0, 0)" stroke="rgb(204, 204, 204)" stroke-width="1px"></line><line x1="34" y1="109.53846153846153" x2="29" y2="109.53846153846153" style="visibility: inherit;" fill="rgb(0, 0, 0)" stroke="rgb(204, 204, 204)" stroke-width="1px"></line><line x1="34" y1="95.84615384615384" x2="29" y2="95.84615384615384" style="visibility: inherit;" fill="rgb(0, 0, 0)" stroke="rgb(204, 204, 204)" stroke-width="1px"></line><line x1="34" y1="82.15384615384616" x2="29" y2="82.15384615384616" style="visibility: inherit;" fill="rgb(0, 0, 0)" stroke="rgb(204, 204, 204)" stroke-width="1px"></line><line x1="34" y1="68.46153846153845" x2="29" y2="68.46153846153845" style="visibility: inherit;" fill="rgb(0, 0, 0)" stroke="rgb(204, 204, 204)" stroke-width="1px"></line><line x1="34" y1="54.769230769230774" x2="29" y2="54.769230769230774" style="visibility: inherit;" fill="rgb(0, 0, 0)" stroke="rgb(204, 204, 204)" stroke-width="1px"></line><line x1="34" y1="41.076923076923066" x2="29" y2="41.076923076923066" style="visibility: inherit;" fill="rgb(0, 0, 0)" stroke="rgb(204, 204, 204)" stroke-width="1px"></line><line x1="34" y1="27.384615384615387" x2="29" y2="27.384615384615387" style="visibility: inherit;" fill="rgb(0, 0, 0)" stroke="rgb(204, 204, 204)" stroke-width="1px"></line><line x1="34" y1="13.69230769230768" x2="29" y2="13.69230769230768" style="visibility: inherit;" fill="rgb(0, 0, 0)" stroke="rgb(204, 204, 204)" stroke-width="1px"></line><line x1="34" y1="0" x2="29" y2="0" style="visibility: inherit;" fill="rgb(0, 0, 0)" stroke="rgb(204, 204, 204)" stroke-width="1px"></line></g><g transform="translate(24, 0)"><text x="0" y="178" dx="0em" dy="0.3em" style="text-anchor: end; visibility: hidden; font-family: &quot;Helvetica Neue&quot;, sans-serif; font-size: 12px; font-weight: 200;" fill="rgb(50, 49, 63)" stroke="none" stroke-width="1px">-2</text><text x="0" y="164.30769230769232" dx="0em" dy="0.3em" style="text-anchor: end; visibility: inherit; font-family: &quot;Helvetica Neue&quot;, sans-serif; font-size: 12px; font-weight: 200;" fill="rgb(50, 49, 63)" stroke="none" stroke-width="1px">0</text><text x="0" y="150.6153846153846" dx="0em" dy="0.3em" style="text-anchor: end; visibility: hidden; font-family: &quot;Helvetica Neue&quot;, sans-serif; font-size: 12px; font-weight: 200;" fill="rgb(50, 49, 63)" stroke="none" stroke-width="1px">2</text><text x="0" y="136.9230769230769" dx="0em" dy="0.3em" style="text-anchor: end; visibility: inherit; font-family: &quot;Helvetica Neue&quot;, sans-serif; font-size: 12px; font-weight: 200;" fill="rgb(50, 49, 63)" stroke="none" stroke-width="1px">4</text><text x="0" y="123.23076923076923" dx="0em" dy="0.3em" style="text-anchor: end; visibility: hidden; font-family: &quot;Helvetica Neue&quot;, sans-serif; font-size: 12px; font-weight: 200;" fill="rgb(50, 49, 63)" stroke="none" stroke-width="1px">6</text><text x="0" y="109.53846153846153" dx="0em" dy="0.3em" style="text-anchor: end; visibility: inherit; font-family: &quot;Helvetica Neue&quot;, sans-serif; font-size: 12px; font-weight: 200;" fill="rgb(50, 49, 63)" stroke="none" stroke-width="1px">8</text><text x="0" y="95.84615384615384" dx="0em" dy="0.3em" style="text-anchor: end; visibility: hidden; font-family: &quot;Helvetica Neue&quot;, sans-serif; font-size: 12px; font-weight: 200;" fill="rgb(50, 49, 63)" stroke="none" stroke-width="1px">10</text><text x="0" y="82.15384615384616" dx="0em" dy="0.3em" style="text-anchor: end; visibility: inherit; font-family: &quot;Helvetica Neue&quot;, sans-serif; font-size: 12px; font-weight: 200;" fill="rgb(50, 49, 63)" stroke="none" stroke-width="1px">12</text><text x="0" y="68.46153846153845" dx="0em" dy="0.3em" style="text-anchor: end; visibility: hidden; font-family: &quot;Helvetica Neue&quot;, sans-serif; font-size: 12px; font-weight: 200;" fill="rgb(50, 49, 63)" stroke="none" stroke-width="1px">14</text><text x="0" y="54.769230769230774" dx="0em" dy="0.3em" style="text-anchor: end; visibility: inherit; font-family: &quot;Helvetica Neue&quot;, sans-serif; font-size: 12px; font-weight: 200;" fill="rgb(50, 49, 63)" stroke="none" stroke-width="1px">16</text><text x="0" y="41.076923076923066" dx="0em" dy="0.3em" style="text-anchor: end; visibility: hidden; font-family: &quot;Helvetica Neue&quot;, sans-serif; font-size: 12px; font-weight: 200;" fill="rgb(50, 49, 63)" stroke="none" stroke-width="1px">18</text><text x="0" y="27.384615384615387" dx="0em" dy="0.3em" style="text-anchor: end; visibility: inherit; font-family: &quot;Helvetica Neue&quot;, sans-serif; font-size: 12px; font-weight: 200;" fill="rgb(50, 49, 63)" stroke="none" stroke-width="1px">20</text><text x="0" y="13.69230769230768" dx="0em" dy="0.3em" style="text-anchor: end; visibility: hidden; font-family: &quot;Helvetica Neue&quot;, sans-serif; font-size: 12px; font-weight: 200;" fill="rgb(50, 49, 63)" stroke="none" stroke-width="1px">22</text><text x="0" y="0" dx="0em" dy="0.3em" style="text-anchor: end; visibility: hidden; font-family: &quot;Helvetica Neue&quot;, sans-serif; font-size: 12px; font-weight: 200;" fill="rgb(50, 49, 63)" stroke="none" stroke-width="1px">24</text></g><line x1="34" y1="0" x2="34" y2="178" fill="rgb(0, 0, 0)" stroke="rgb(204, 204, 204)" stroke-width="1px"></line></g></g><g transform="translate(34, 0)" clip-path="url(#clip_0)"><clipPath id="clip_0"><rect width="296" height="178"></rect></clipPath><g><g><g><line x1="0" y1="0" x2="0" y2="178" fill="rgb(0, 0, 0)" stroke="rgb(60, 60, 60)" stroke-width="1px" opacity="0.25"></line><line x1="32.888888888888886" y1="0" x2="32.888888888888886" y2="178" fill="rgb(0, 0, 0)" stroke="rgb(60, 60, 60)" stroke-width="1px" opacity="0.25"></line><line x1="65.77777777777777" y1="0" x2="65.77777777777777" y2="178" fill="rgb(0, 0, 0)" stroke="rgb(60, 60, 60)" stroke-width="1px" opacity="0.25"></line><line x1="98.66666666666666" y1="0" x2="98.66666666666666" y2="178" fill="rgb(0, 0, 0)" stroke="rgb(60, 60, 60)" stroke-width="1px" opacity="0.25"></line><line x1="131.55555555555554" y1="0" x2="131.55555555555554" y2="178" fill="rgb(0, 0, 0)" stroke="rgb(60, 60, 60)" stroke-width="1px" opacity="0.25"></line><line x1="164.44444444444446" y1="0" x2="164.44444444444446" y2="178" fill="rgb(0, 0, 0)" stroke="rgb(60, 60, 60)" stroke-width="1px" opacity="0.25"></line><line x1="197.33333333333331" y1="0" x2="197.33333333333331" y2="178" fill="rgb(0, 0, 0)" stroke="rgb(60, 60, 60)" stroke-width="1px" opacity="0.25"></line><line x1="230.22222222222223" y1="0" x2="230.22222222222223" y2="178" fill="rgb(0, 0, 0)" stroke="rgb(60, 60, 60)" stroke-width="1px" opacity="0.25"></line><line x1="263.1111111111111" y1="0" x2="263.1111111111111" y2="178" fill="rgb(0, 0, 0)" stroke="rgb(60, 60, 60)" stroke-width="1px" opacity="0.25"></line><line x1="296" y1="0" x2="296" y2="178" fill="rgb(0, 0, 0)" stroke="rgb(60, 60, 60)" stroke-width="1px" opacity="0.25"></line></g><g><line x1="0" y1="178" x2="296" y2="178" fill="rgb(0, 0, 0)" stroke="rgb(60, 60, 60)" stroke-width="1px" opacity="0.25"></line><line x1="0" y1="164.30769230769232" x2="296" y2="164.30769230769232" fill="rgb(0, 0, 0)" stroke="rgb(60, 60, 60)" stroke-width="1px" opacity="0.25"></line><line x1="0" y1="150.6153846153846" x2="296" y2="150.6153846153846" fill="rgb(0, 0, 0)" stroke="rgb(60, 60, 60)" stroke-width="1px" opacity="0.25"></line><line x1="0" y1="136.9230769230769" x2="296" y2="136.9230769230769" fill="rgb(0, 0, 0)" stroke="rgb(60, 60, 60)" stroke-width="1px" opacity="0.25"></line><line x1="0" y1="123.23076923076923" x2="296" y2="123.23076923076923" fill="rgb(0, 0, 0)" stroke="rgb(60, 60, 60)" stroke-width="1px" opacity="0.25"></line><line x1="0" y1="109.53846153846153" x2="296" y2="109.53846153846153" fill="rgb(0, 0, 0)" stroke="rgb(60, 60, 60)" stroke-width="1px" opacity="0.25"></line><line x1="0" y1="95.84615384615384" x2="296" y2="95.84615384615384" fill="rgb(0, 0, 0)" stroke="rgb(60, 60, 60)" stroke-width="1px" opacity="0.25"></line><line x1="0" y1="82.15384615384616" x2="296" y2="82.15384615384616" fill="rgb(0, 0, 0)" stroke="rgb(60, 60, 60)" stroke-width="1px" opacity="0.25"></line><line x1="0" y1="68.46153846153845" x2="296" y2="68.46153846153845" fill="rgb(0, 0, 0)" stroke="rgb(60, 60, 60)" stroke-width="1px" opacity="0.25"></line><line x1="0" y1="54.769230769230774" x2="296" y2="54.769230769230774" fill="rgb(0, 0, 0)" stroke="rgb(60, 60, 60)" stroke-width="1px" opacity="0.25"></line><line x1="0" y1="41.076923076923066" x2="296" y2="41.076923076923066" fill="rgb(0, 0, 0)" stroke="rgb(60, 60, 60)" stroke-width="1px" opacity="0.25"></line><line x1="0" y1="27.384615384615387" x2="296" y2="27.384615384615387" fill="rgb(0, 0, 0)" stroke="rgb(60, 60, 60)" stroke-width="1px" opacity="0.25"></line><line x1="0" y1="13.69230769230768" x2="296" y2="13.69230769230768" fill="rgb(0, 0, 0)" stroke="rgb(60, 60, 60)" stroke-width="1px" opacity="0.25"></line><line x1="0" y1="0" x2="296" y2="0" fill="rgb(0, 0, 0)" stroke="rgb(60, 60, 60)" stroke-width="1px" opacity="0.25"></line></g></g></g><g><g><line x1="0" y1="164.30769230769232" x2="296" y2="164.30769230769232" fill="rgb(0, 0, 0)" stroke="rgb(153, 153, 153)" stroke-width="1.5px"></line></g></g><g><g><line x1="32.888888888888886" y1="0" x2="32.888888888888886" y2="178" fill="rgb(0, 0, 0)" stroke="rgb(153, 153, 153)" stroke-width="1.5px"></line></g></g><g><g><g><g><g><path stroke="rgb(0, 119, 187)" stroke-width="2px" d="M41.111111111111114,-19.917301974601486L42.75555555555555,28.9976506891025L44.4,61.97320350183875L46.044444444444444,85.79101939318895L47.68888888888889,96.64215642690264L49.33333333333333,100.2993830602062L50.977777777777774,110.11328505978429L52.62222222222223,113.62742551323731L54.266666666666666,118.40734809798866L55.91111111111111,124.27019429491753L57.55555555555556,129.99227907328213L59.2,133.31999860911745L60.84444444444444,135.19001221230442L62.48888888888889,137.0555203141212L64.13333333333334,137.87632502609358L65.77777777777777,138.6464568315224L67.42222222222222,139.66742148078728L69.06666666666666,140.74563456429337L70.71111111111111,141.80130832059953L72.35555555555555,141.54984309185238L74,142.38053284578814L75.64444444444445,142.55682935804336L77.28888888888889,143.47485259951947L78.93333333333334,144.497137278176L80.57777777777777,146.2798613385012L82.22222222222223,147.4947632043676L83.86666666666666,148.42609739452485L85.5111111111111,148.62361230415536L87.15555555555555,149.20547140647432L88.8,149.4725068656917L90.44444444444446,149.81728733137814L92.08888888888889,149.90067783334987L93.73333333333333,150.17239653220972L95.37777777777778,150.01799489911488L97.02222222222223,150.30172210517134L98.66666666666666,150.40053964429026L100.31111111111112,150.5724025516457L101.95555555555555,150.2161737300399L103.6,150.2089911801379L105.24444444444445,150.90592346260956L106.88888888888889,151.34074680152733L108.53333333333333,151.66349199088165L110.17777777777778,151.94273724681892L111.82222222222222,152.11320906641524L113.46666666666667,152.13228460958925L115.11111111111111,152.32381806673877L116.75555555555555,152.39904507890574L118.4,152.36360786311346L120.04444444444445,152.4138997946257L121.68888888888888,152.40804107007142L123.33333333333334,152.46047153987237L124.97777777777777,152.32680550810494L126.62222222222222,152.5087900064351L128.26666666666668,152.4715035453462L129.9111111111111,152.7820522896845L131.55555555555554,152.77536043323545L133.20000000000002,152.96777325518642L134.84444444444443,153.06321804771986L136.4888888888889,153.03494586836933L138.13333333333333,153.15533119797308L139.77777777777777,153.18038611901483L141.42222222222222,153.223202256425L143.06666666666666,153.24836308978288L144.7111111111111,153.27030818549017L146.35555555555555,153.13485493822L148,153.25983707231757L149.64444444444445,153.2010278599043L151.2888888888889,153.25531402484972L152.93333333333334,153.27095635044262L154.57777777777778,153.30747203047454L156.22222222222223,153.48327815541853L157.86666666666667,153.5438230423377L159.5111111111111,153.55737453353953L161.15555555555554,153.61601280133686L162.8,153.57974008894422L164.44444444444446,153.59505922899518L166.0888888888889,153.58154643818798L167.73333333333332,153.66311622591468L169.37777777777777,153.70099307395472L171.0222222222222,153.65580124894788L172.66666666666669,153.5906916114551L174.3111111111111,153.65913497249534L175.95555555555555,153.6301441545318L177.6,153.64942306287196L179.24444444444444,153.65848686240838L180.8888888888889,153.6571614234518L182.53333333333333,153.72722345019912L184.17777777777778,153.70413943003322L185.82222222222222,153.75453406220177L187.46666666666667,153.7186669906247L189.1111111111111,153.7451845260927L190.75555555555556,153.76858740257342L192.4,153.79674548171693L194.04444444444445,153.72527584911106L195.6888888888889,153.78413777867158L197.33333333333331,153.81963317813762L198.9777777777778,153.79683093286008L200.62222222222223,153.7688174489525L202.26666666666668,153.77065324766835L203.9111111111111,153.83058559701269L205.55555555555554,153.84806401613608L207.2,153.8676361726258L208.84444444444446,153.7879140373603L210.4888888888889,153.77112060672945L212.13333333333333,153.84363575922976L213.77777777777777,153.8564190451539L215.42222222222222,153.7863952095466L217.06666666666666,153.841825270089L218.7111111111111,153.80635577644856L220.35555555555555,153.787931497591L222,153.76904604637L223.64444444444445,153.79587384895353L225.2888888888889,153.8424792467935L226.93333333333334,153.80709060857836L228.57777777777778,153.86238841771706L230.22222222222223,153.87299863158515L231.86666666666667,153.93107053113218L233.5111111111111,153.95440728579075L235.15555555555554,153.969500987568L236.8,153.84887720964966L238.44444444444446,153.92143730002826L240.0888888888889,153.8925288639694L241.73333333333332,153.88988221603626L243.37777777777777,153.94314469187714L245.0222222222222,153.82741094954213L246.66666666666669,153.94167557553888L248.3111111111111,153.80851465993373L249.95555555555555,153.84142978234118L251.6,153.89726627705616L253.24444444444444,153.83132234669446L254.8888888888889,153.8562608869889L256.53333333333336,153.79284922919018L258.1777777777778,153.80384711134317L259.8222222222222,153.83946365952605L261.46666666666664,153.86885511917401" style="fill: none;" fill="none"></path></g><g><path stroke="rgb(255, 112, 67)" stroke-width="2px" d="M42.75555555555555,-34.57111817009721L44.4,11.688870018937763L46.044444444444444,44.36216553007131L47.68888888888889,65.87035045490043L49.33333333333333,64.57845415013168L50.977777777777774,79.92489824869685L52.62222222222223,91.16825260680696L54.266666666666666,82.63329264356216L55.91111111111111,98.5115734130204L57.55555555555556,110.13035131532023L59.2,118.50070313762401L60.84444444444444,123.80269674432304L62.48888888888889,126.8259481635803L64.13333333333334,129.6349273573103L65.77777777777777,132.1485363919171L67.42222222222222,134.04133029581288L69.06666666666666,135.54164481314697L70.71111111111111,137.11476217210657L72.35555555555555,137.63973179217132L74,139.17901992370332L75.64444444444445,140.3187463295387L77.28888888888889,141.49446100100144L78.93333333333334,142.50564714576765L80.57777777777777,144.48133568791084L82.22222222222223,145.99953176332238L83.86666666666666,147.18169534572593L85.5111111111111,147.94006018628298L87.15555555555555,148.58874034459802L88.8,148.97985032574235L90.44444444444446,149.49305982196879L92.08888888888889,149.84652791079657L93.73333333333333,150.18575126587672L95.37777777777778,150.4276033326967L97.02222222222223,150.61578476043687L98.66666666666666,150.83369268607134L100.31111111111112,151.03903976652208L101.95555555555555,151.34037189604737L103.6,151.38641781440245L105.24444444444445,151.92677696160342L106.88888888888889,152.5025610644233L108.53333333333333,152.82543661202186L110.17777777777778,153.10667405957503L111.82222222222222,153.34355710087178L113.46666666666667,153.43075386918278L115.11111111111111,153.66219181055263L116.75555555555555,153.79448835897836L118.4,153.8780503983816L120.04444444444445,153.954534753019L121.68888888888888,154.07538482730703L123.33333333333334,154.1434897548449L124.97777777777777,154.22576616527667L126.62222222222222,154.31429981552014L128.26666666666668,154.34362604054664L129.9111111111111,154.5506881639715L131.55555555555554,154.7793894554543L133.20000000000002,154.94845249510627L134.84444444444443,155.05124802467395L136.4888888888889,155.0905347860791L138.13333333333333,155.14646359297035L139.77777777777777,155.24204214360216L141.42222222222222,155.312622579839L143.06666666666666,155.359256151446L144.7111111111111,155.3986156904087L146.35555555555555,155.4225967113972L148,155.4921965159013L149.64444444444445,155.50190585870672L151.2888888888889,155.52570645728875L152.93333333333334,155.53661034352467L154.57777777777778,155.64217150578568L156.22222222222223,155.71528015907256L157.86666666666667,155.78547354793704L159.5111111111111,155.86709428169638L161.15555555555554,155.26857654333025L162.8,155.57447306240468L164.44444444444446,155.7672726883445L166.0888888888889,155.90040415736985L167.73333333333332,156.01585989217043L169.37777777777777,156.02889872021905L171.0222222222222,156.0757833983149L172.66666666666669,156.09287072628L174.3111111111111,156.119654227367L175.95555555555555,156.13551801158476L177.6,156.1616986193452L179.24444444444444,156.19131669437206L180.8888888888889,156.21244116079765L182.53333333333333,156.20796905154242L184.17777777777778,156.25646205522708L185.82222222222222,156.27620408402734L187.46666666666667,156.30373294127406L189.1111111111111,156.35199295311776L190.75555555555556,156.35552437708236L192.4,156.34093029447286L194.04444444444445,156.34434455583764L195.6888888888889,156.36763456480023L197.33333333333331,156.3775374115486L198.9777777777778,156.39568378133373L200.62222222222223,156.40481138451116L202.26666666666668,156.41324395166077L203.9111111111111,156.38591148529653L205.55555555555554,156.41419746828294L207.2,156.4395849404788L208.84444444444446,156.4550534471857L210.4888888888889,156.45442156885605L212.13333333333333,156.47613756089441L213.77777777777777,156.50102218984523L215.42222222222222,156.50258287878515L217.06666666666666,156.50782549481752L218.7111111111111,156.519171163355L220.35555555555555,156.52927277197705L222,156.55732112766844L223.64444444444445,156.57858170057264L225.2888888888889,156.55303696522532L226.93333333333334,156.57532369929206L228.57777777777778,156.5858677029103L230.22222222222223,156.57679969986296L231.86666666666667,156.57561907124528L233.5111111111111,156.5899313139806L235.15555555555554,156.5877330762724L236.8,156.60541385326724L238.44444444444446,156.57873911164415L240.0888888888889,156.5787277077385L241.73333333333332,156.58607219417152L243.37777777777777,156.60894583916223L245.0222222222222,156.61430996671191L246.66666666666669,156.6133469444941L248.3111111111111,156.61097071781342L249.95555555555555,156.61754496683963L251.6,156.64264315333446L253.24444444444444,156.62677353417152L254.8888888888889,156.61801728805145L256.53333333333336,156.59679654176563L258.1777777777778,156.62642425306115L259.8222222222222,156.61330793183453L261.46666666666664,156.63952083058462L263.1111111111111,156.65990603276168" style="fill: none;" fill="none"></path></g></g></g></g><g opacity="0.2"><g><g><g><path stroke="rgb(0, 119, 187)" stroke-width="2px" d="M36.17777777777778,-10.988674457256593L37.82222222222222,44.34951958289514L39.46666666666667,73.81666432894193L41.111111111111114,81.7866224875817L42.75555555555555,98.94681563744179L44.4,110.05187606811523L46.044444444444444,120.91767146037175L47.68888888888889,112.75483028705304L49.33333333333333,105.75205223376935L50.977777777777774,124.78073123785165L52.62222222222223,118.88716191511888L54.266666666666666,125.56786760917076L55.91111111111111,133.0575720346891L57.55555555555556,138.57137058331415L59.2,138.31016973348764L60.84444444444444,137.99455782083365L62.48888888888889,139.85349827546338L64.13333333333334,139.10745706925024L65.77777777777777,139.8016123038072L67.42222222222222,141.19883485940787L69.06666666666666,142.36293290211603L70.71111111111111,143.38480644959668L72.35555555555555,141.1726470360389L74,143.62656393417944L75.64444444444445,142.8212736753317L77.28888888888889,144.85188605235174L78.93333333333334,146.0305633544922L80.57777777777777,148.95394644370447L82.22222222222223,149.31711560029248L83.86666666666666,149.82309849445636L85.5111111111111,148.91988464502188L87.15555555555555,150.07826001827533L88.8,149.8730600430415L90.44444444444446,150.3344580210172L92.08888888888889,150.02576358501727L93.73333333333333,150.5799745779771L95.37777777777778,149.78639245033264L97.02222222222223,150.72731291330777L98.66666666666666,150.5487659527705L100.31111111111112,150.83019691247205L101.95555555555555,149.68183049788843L103.6,150.198217355288L105.24444444444445,151.951321886136L106.88888888888889,151.99298180983618L108.53333333333333,152.147609774883L110.17777777777778,152.36160513070914L111.82222222222222,152.36891679580395L113.46666666666667,152.16089792434985L115.11111111111111,152.61111825246076L116.75555555555555,152.51188559715564L118.4,152.31045203942517L120.04444444444445,152.48933769189395L121.68888888888888,152.39925298324L123.33333333333334,152.53911724457373L124.97777777777777,152.12630646045392L126.62222222222222,152.7817667539303L128.26666666666668,152.41557385371283L129.9111111111111,153.2478754061919L131.55555555555554,152.76532264856192L133.20000000000002,153.25639248811282L134.84444444444443,153.20638523652002L136.4888888888889,152.9925375993435L138.13333333333333,153.33590919237872L139.77777777777777,153.21796850057748L141.42222222222222,153.28742646254025L143.06666666666666,153.2861043398197L144.7111111111111,153.3032258290511L146.35555555555555,152.93167506731473L148,153.44731027346393L149.64444444444445,153.11281404128442L151.2888888888889,153.33674327226785L152.93333333333334,153.29441983883197L154.57777777777778,153.36224555052243L156.22222222222223,153.74698734283447L157.86666666666667,153.63464037271646L159.5111111111111,153.57770177034232L161.15555555555554,153.70397020303287L162.8,153.52533102035522L164.44444444444446,153.61803793907166L166.0888888888889,153.56127725197717L167.73333333333332,153.78547090750476L169.37777777777777,153.75780834601477L171.0222222222222,153.58801351143762L172.66666666666669,153.49302715521594L174.3111111111111,153.7618000140557L175.95555555555555,153.5866579275865L177.6,153.67834142538217L179.24444444444444,153.672082561713L180.8888888888889,153.655173265017L182.53333333333333,153.83231649032007L184.17777777777778,153.66951339978436L185.82222222222222,153.83012601045462L187.46666666666667,153.6648663832591L189.1111111111111,153.78496082929465L190.75555555555556,153.80369171729456L192.4,153.8389826004322L194.04444444444445,153.61807140020224L195.6888888888889,153.87243067301236L197.33333333333331,153.8728762773367L198.9777777777778,153.76262756494376L200.62222222222223,153.72679722309113L202.26666666666668,153.7734069457421L203.9111111111111,153.92048412102918L205.55555555555554,153.87428164482117L207.2,153.89699440736035L208.84444444444446,153.6683308344621L210.4888888888889,153.74593046078314L212.13333333333333,153.95240848798016L213.77777777777777,153.8755939740401L215.42222222222222,153.68135945613568L217.06666666666666,153.92497036090265L218.7111111111111,153.75315153598785L220.35555555555555,153.76029507930463L222,153.7407178695385L223.64444444444445,153.83611555282886L225.2888888888889,153.9123873435534L226.93333333333334,153.75400765125568L228.57777777777778,153.9453351314251L230.22222222222223,153.8889139523873L231.86666666666667,154.01817838045267L233.5111111111111,153.9894124177786L235.15555555555554,153.9921415402339L236.8,153.66794154277216L238.44444444444446,154.0302774355962L240.0888888888889,153.8491662098811L241.73333333333332,153.88591224413653L243.37777777777777,154.0230384056385L245.0222222222222,153.6538103360396L246.66666666666669,154.113072514534L248.3111111111111,153.608773286526L249.95555555555555,153.89080246595236L251.6,153.98102101912866L253.24444444444444,153.73240645115192L254.8888888888889,153.89366869743054L256.53333333333336,153.6977317424921L258.1777777777778,153.82034393457266L259.8222222222222,153.89288848180036L261.46666666666664,153.912942308646" style="fill: none;" fill="none"></path></g><g><path stroke="rgb(255, 112, 67)" stroke-width="2px" d="M37.82222222222222,-45.93796025789703L39.46666666666667,17.434496072622437L41.111111111111114,48.594545511099L42.75555555555555,70.76847611940823L44.4,79.13637689443735L46.044444444444444,92.54892994807317L47.68888888888889,97.80749841836783L49.33333333333333,62.65232709737924L50.977777777777774,102.86104972545917L52.62222222222223,107.99657264122597L54.266666666666666,69.84757357377273L55.91111111111111,122.31033024421104L57.55555555555556,127.55032370640681L59.2,131.0526888187115L60.84444444444444,131.75434097876916L62.48888888888889,131.3603647305415L64.13333333333334,133.8481393960806L65.77777777777777,135.91881209153394L67.42222222222222,136.8804588684669L69.06666666666666,137.79208696805514L70.71111111111111,139.47441957547113L72.35555555555555,138.42718249100903L74,141.48794555664062L75.64444444444445,142.02833302204425L77.28888888888889,143.2580312031966L78.93333333333334,144.02242543147162L80.57777777777777,147.4448674091926L82.22222222222223,148.27682537298938L83.86666666666666,148.9549404841203L85.5111111111111,149.077607356585L87.15555555555555,149.56176053560696L88.8,149.5665152806502L90.44444444444446,150.26287405307477L92.08888888888889,150.37673003856952L93.73333333333333,150.69458629534796L95.37777777777778,150.7903814315796L97.02222222222223,150.89805690141824L98.66666666666666,151.16055457408612L100.31111111111112,151.34706038695117L101.95555555555555,151.79237009011783L103.6,151.45548669191507L105.24444444444445,152.73731568226447L106.88888888888889,153.36623721856336L108.53333333333333,153.30974993338953L110.17777777777778,153.52853023088895L111.82222222222222,153.69888166280893L113.46666666666667,153.56154902164752L115.11111111111111,154.0093487226046L116.75555555555555,153.99293318161597L118.4,154.00339345748608L120.04444444444445,154.0692612849749L121.68888888888888,154.2566599387389L123.33333333333334,154.2456471461516L124.97777777777777,154.34918078092429L126.62222222222222,154.44710029088534L128.26666666666668,154.38761537808637L129.9111111111111,154.86128134910876L131.55555555555554,155.12244139267847L133.20000000000002,155.20204705458423L134.84444444444443,155.20544131902548L136.4888888888889,155.14946492818686L138.13333333333333,155.23035680330716L139.77777777777777,155.38540996954993L141.42222222222222,155.41849323419424L143.06666666666666,155.42920650885657L144.7111111111111,155.45765499885266L146.35555555555555,155.45856824288L148,155.5965962226574L149.64444444444445,155.51646987291483L151.2888888888889,155.5614073551618L152.93333333333334,155.55296617287854L154.57777777777778,155.8005132491772L156.22222222222223,155.82494313900287L157.86666666666667,155.8907636312338L159.5111111111111,155.98952538233536L161.15555555555554,154.37079993578104L162.8,156.03331784101633L164.44444444444446,156.05647212725418L166.0888888888889,156.10010136090793L167.73333333333332,156.18904349437128L169.37777777777777,156.04845696229202L171.0222222222222,156.14611041545868L172.66666666666669,156.1185017182277L174.3111111111111,156.15982947899744L175.95555555555555,156.1593136879114L177.6,156.2009695309859L179.24444444444444,156.23574380691235L180.8888888888889,156.24412786043607L182.53333333333333,156.20126088765952L184.17777777777778,156.32920156075403L185.82222222222222,156.30581712722778L187.46666666666667,156.3450262271441L189.1111111111111,156.4243829708833L190.75555555555556,156.36082151302924L192.4,156.31903917055863L194.04444444444445,156.34946594788477L195.6888888888889,156.40256957824414L197.33333333333331,156.39239168167114L198.9777777777778,156.42290333601144L200.62222222222223,156.41850278927728L202.26666666666668,156.4258928023852L203.9111111111111,156.34491278575018L205.55555555555554,156.4566264427625L207.2,156.4776661487726L208.84444444444446,156.47825620724603L210.4888888888889,156.45347375136154L212.13333333333333,156.50871154895196L213.77777777777777,156.53834913327142L215.42222222222222,156.50492391219507L217.06666666666666,156.5156894188661L218.7111111111111,156.53618966616116L220.35555555555555,156.54442518491012L222,156.5993936612056L223.64444444444445,156.6104725599289L225.2888888888889,156.51471986220434L226.93333333333334,156.60875380039215L228.57777777777778,156.60168370833765L230.22222222222223,156.56319769529196L231.86666666666667,156.5738481283188L233.5111111111111,156.61139967808356L235.15555555555554,156.58443571971014L236.8,156.63193501875952L238.44444444444446,156.53872699920947L240.0888888888889,156.57871060188L241.73333333333332,156.59708892382108L243.37777777777777,156.64325630664825L245.0222222222222,156.62235615803644L246.66666666666669,156.61190241116745L248.3111111111111,156.60740637779236L249.95555555555555,156.62740634037897L251.6,156.68029043307672L253.24444444444444,156.6029691054271L254.8888888888889,156.60488291887137L256.53333333333336,156.56496542233688L258.1777777777778,156.6708658200044L259.8222222222222,156.5936334499946L261.46666666666664,156.67884017870978L263.1111111111111,156.69048383602728" style="fill: none;" fill="none"></path></g></g></g></g></g><g><g opacity="0.197594"><span fill="rgb(0, 0, 0)" stroke="none" stroke-width="1px">Alt + Scroll to Zoom</span></g></g></g><g transform="translate(34, 178)" clip-path="url(#clip_1)"><clipPath id="clip_1"><rect width="296" height="22"></rect></clipPath><g><g><line x1="0" y1="0" x2="0" y2="5" style="visibility: inherit;" fill="rgb(0, 0, 0)" stroke="rgb(204, 204, 204)" stroke-width="1px"></line><line x1="32.888888888888886" y1="0" x2="32.888888888888886" y2="5" style="visibility: inherit;" fill="rgb(0, 0, 0)" stroke="rgb(204, 204, 204)" stroke-width="1px"></line><line x1="65.77777777777777" y1="0" x2="65.77777777777777" y2="5" style="visibility: inherit;" fill="rgb(0, 0, 0)" stroke="rgb(204, 204, 204)" stroke-width="1px"></line><line x1="98.66666666666666" y1="0" x2="98.66666666666666" y2="5" style="visibility: inherit;" fill="rgb(0, 0, 0)" stroke="rgb(204, 204, 204)" stroke-width="1px"></line><line x1="131.55555555555554" y1="0" x2="131.55555555555554" y2="5" style="visibility: inherit;" fill="rgb(0, 0, 0)" stroke="rgb(204, 204, 204)" stroke-width="1px"></line><line x1="164.44444444444446" y1="0" x2="164.44444444444446" y2="5" style="visibility: inherit;" fill="rgb(0, 0, 0)" stroke="rgb(204, 204, 204)" stroke-width="1px"></line><line x1="197.33333333333331" y1="0" x2="197.33333333333331" y2="5" style="visibility: inherit;" fill="rgb(0, 0, 0)" stroke="rgb(204, 204, 204)" stroke-width="1px"></line><line x1="230.22222222222223" y1="0" x2="230.22222222222223" y2="5" style="visibility: inherit;" fill="rgb(0, 0, 0)" stroke="rgb(204, 204, 204)" stroke-width="1px"></line><line x1="263.1111111111111" y1="0" x2="263.1111111111111" y2="5" style="visibility: inherit;" fill="rgb(0, 0, 0)" stroke="rgb(204, 204, 204)" stroke-width="1px"></line><line x1="296" y1="0" x2="296" y2="5" style="visibility: inherit;" fill="rgb(0, 0, 0)" stroke="rgb(204, 204, 204)" stroke-width="1px"></line></g><g transform="translate(0, 8)"><text x="0" y="0" dx="0em" dy="0.95em" style="text-anchor: middle; visibility: hidden; font-family: &quot;Helvetica Neue&quot;, sans-serif; font-size: 12px; font-weight: 200;" fill="rgb(50, 49, 63)" stroke="none" stroke-width="1px">-20</text><text x="32.888888888888886" y="0" dx="0em" dy="0.95em" style="text-anchor: middle; visibility: inherit; font-family: &quot;Helvetica Neue&quot;, sans-serif; font-size: 12px; font-weight: 200;" fill="rgb(50, 49, 63)" stroke="none" stroke-width="1px">0</text><text x="65.77777777777777" y="0" dx="0em" dy="0.95em" style="text-anchor: middle; visibility: inherit; font-family: &quot;Helvetica Neue&quot;, sans-serif; font-size: 12px; font-weight: 200;" fill="rgb(50, 49, 63)" stroke="none" stroke-width="1px">20</text><text x="98.66666666666666" y="0" dx="0em" dy="0.95em" style="text-anchor: middle; visibility: inherit; font-family: &quot;Helvetica Neue&quot;, sans-serif; font-size: 12px; font-weight: 200;" fill="rgb(50, 49, 63)" stroke="none" stroke-width="1px">40</text><text x="131.55555555555554" y="0" dx="0em" dy="0.95em" style="text-anchor: middle; visibility: inherit; font-family: &quot;Helvetica Neue&quot;, sans-serif; font-size: 12px; font-weight: 200;" fill="rgb(50, 49, 63)" stroke="none" stroke-width="1px">60</text><text x="164.44444444444446" y="0" dx="0em" dy="0.95em" style="text-anchor: middle; visibility: inherit; font-family: &quot;Helvetica Neue&quot;, sans-serif; font-size: 12px; font-weight: 200;" fill="rgb(50, 49, 63)" stroke="none" stroke-width="1px">80</text><text x="197.33333333333331" y="0" dx="0em" dy="0.95em" style="text-anchor: middle; visibility: inherit; font-family: &quot;Helvetica Neue&quot;, sans-serif; font-size: 12px; font-weight: 200;" fill="rgb(50, 49, 63)" stroke="none" stroke-width="1px">100</text><text x="230.22222222222223" y="0" dx="0em" dy="0.95em" style="text-anchor: middle; visibility: inherit; font-family: &quot;Helvetica Neue&quot;, sans-serif; font-size: 12px; font-weight: 200;" fill="rgb(50, 49, 63)" stroke="none" stroke-width="1px">120</text><text x="263.1111111111111" y="0" dx="0em" dy="0.95em" style="text-anchor: middle; visibility: inherit; font-family: &quot;Helvetica Neue&quot;, sans-serif; font-size: 12px; font-weight: 200;" fill="rgb(50, 49, 63)" stroke="none" stroke-width="1px">140</text><text x="296" y="0" dx="0em" dy="0.95em" style="text-anchor: middle; visibility: hidden; font-family: &quot;Helvetica Neue&quot;, sans-serif; font-size: 12px; font-weight: 200;" fill="rgb(50, 49, 63)" stroke="none" stroke-width="1px">160</text></g><line x1="0" y1="0" x2="296" y2="0" fill="rgb(0, 0, 0)" stroke="rgb(204, 204, 204)" stroke-width="1px"></line></g></g></g></g></svg>