<svg viewBox="0 0 330 200" xmlns="http://www.w3.org/2000/svg"><g><g><g><g><g><line x1="34" y1="178" x2="29" y2="178" style="visibility: inherit;" fill="rgb(0, 0, 0)" stroke="rgb(204, 204, 204)" stroke-width="1px"></line><line x1="34" y1="161.8181818181818" x2="29" y2="161.8181818181818" style="visibility: inherit;" fill="rgb(0, 0, 0)" stroke="rgb(204, 204, 204)" stroke-width="1px"></line><line x1="34" y1="145.63636363636363" x2="29" y2="145.63636363636363" style="visibility: inherit;" fill="rgb(0, 0, 0)" stroke="rgb(204, 204, 204)" stroke-width="1px"></line><line x1="34" y1="129.45454545454547" x2="29" y2="129.45454545454547" style="visibility: inherit;" fill="rgb(0, 0, 0)" stroke="rgb(204, 204, 204)" stroke-width="1px"></line><line x1="34" y1="113.27272727272727" x2="29" y2="113.27272727272727" style="visibility: inherit;" fill="rgb(0, 0, 0)" stroke="rgb(204, 204, 204)" stroke-width="1px"></line><line x1="34" y1="97.0909090909091" x2="29" y2="97.0909090909091" style="visibility: inherit;" fill="rgb(0, 0, 0)" stroke="rgb(204, 204, 204)" stroke-width="1px"></line><line x1="34" y1="80.90909090909092" x2="29" y2="80.90909090909092" style="visibility: inherit;" fill="rgb(0, 0, 0)" stroke="rgb(204, 204, 204)" stroke-width="1px"></line><line x1="34" y1="64.72727272727273" x2="29" y2="64.72727272727273" style="visibility: inherit;" fill="rgb(0, 0, 0)" stroke="rgb(204, 204, 204)" stroke-width="1px"></line><line x1="34" y1="48.54545454545453" x2="29" y2="48.54545454545453" style="visibility: inherit;" fill="rgb(0, 0, 0)" stroke="rgb(204, 204, 204)" stroke-width="1px"></line><line x1="34" y1="32.363636363636346" x2="29" y2="32.363636363636346" style="visibility: inherit;" fill="rgb(0, 0, 0)" stroke="rgb(204, 204, 204)" stroke-width="1px"></line><line x1="34" y1="16.181818181818187" x2="29" y2="16.181818181818187" style="visibility: inherit;" fill="rgb(0, 0, 0)" stroke="rgb(204, 204, 204)" stroke-width="1px"></line><line x1="34" y1="0" x2="29" y2="0" style="visibility: inherit;" fill="rgb(0, 0, 0)" stroke="rgb(204, 204, 204)" stroke-width="1px"></line></g><g transform="translate(24, 0)"><text x="0" y="178" dx="0em" dy="0.3em" style="text-anchor: end; visibility: hidden; font-family: &quot;Helvetica Neue&quot;, sans-serif; font-size: 12px; font-weight: 200;" fill="rgb(50, 49, 63)" stroke="none" stroke-width="1px">-2</text><text x="0" y="161.8181818181818" dx="0em" dy="0.3em" style="text-anchor: end; visibility: inherit; font-family: &quot;Helvetica Neue&quot;, sans-serif; font-size: 12px; font-weight: 200;" fill="rgb(50, 49, 63)" stroke="none" stroke-width="1px">0</text><text x="0" y="145.63636363636363" dx="0em" dy="0.3em" style="text-anchor: end; visibility: hidden; font-family: &quot;Helvetica Neue&quot;, sans-serif; font-size: 12px; font-weight: 200;" fill="rgb(50, 49, 63)" stroke="none" stroke-width="1px">2</text><text x="0" y="129.45454545454547" dx="0em" dy="0.3em" style="text-anchor: end; visibility: inherit; font-family: &quot;Helvetica Neue&quot;, sans-serif; font-size: 12px; font-weight: 200;" fill="rgb(50, 49, 63)" stroke="none" stroke-width="1px">4</text><text x="0" y="113.27272727272727" dx="0em" dy="0.3em" style="text-anchor: end; visibility: hidden; font-family: &quot;Helvetica Neue&quot;, sans-serif; font-size: 12px; font-weight: 200;" fill="rgb(50, 49, 63)" stroke="none" stroke-width="1px">6</text><text x="0" y="97.0909090909091" dx="0em" dy="0.3em" style="text-anchor: end; visibility: inherit; font-family: &quot;Helvetica Neue&quot;, sans-serif; font-size: 12px; font-weight: 200;" fill="rgb(50, 49, 63)" stroke="none" stroke-width="1px">8</text><text x="0" y="80.90909090909092" dx="0em" dy="0.3em" style="text-anchor: end; visibility: hidden; font-family: &quot;Helvetica Neue&quot;, sans-serif; font-size: 12px; font-weight: 200;" fill="rgb(50, 49, 63)" stroke="none" stroke-width="1px">10</text><text x="0" y="64.72727272727273" dx="0em" dy="0.3em" style="text-anchor: end; visibility: inherit; font-family: &quot;Helvetica Neue&quot;, sans-serif; font-size: 12px; font-weight: 200;" fill="rgb(50, 49, 63)" stroke="none" stroke-width="1px">12</text><text x="0" y="48.54545454545453" dx="0em" dy="0.3em" style="text-anchor: end; visibility: hidden; font-family: &quot;Helvetica Neue&quot;, sans-serif; font-size: 12px; font-weight: 200;" fill="rgb(50, 49, 63)" stroke="none" stroke-width="1px">14</text><text x="0" y="32.363636363636346" dx="0em" dy="0.3em" style="text-anchor: end; visibility: inherit; font-family: &quot;Helvetica Neue&quot;, sans-serif; font-size: 12px; font-weight: 200;" fill="rgb(50, 49, 63)" stroke="none" stroke-width="1px">16</text><text x="0" y="16.181818181818187" dx="0em" dy="0.3em" style="text-anchor: end; visibility: hidden; font-family: &quot;Helvetica Neue&quot;, sans-serif; font-size: 12px; font-weight: 200;" fill="rgb(50, 49, 63)" stroke="none" stroke-width="1px">18</text><text x="0" y="0" dx="0em" dy="0.3em" style="text-anchor: end; visibility: hidden; font-family: &quot;Helvetica Neue&quot;, sans-serif; font-size: 12px; font-weight: 200;" fill="rgb(50, 49, 63)" stroke="none" stroke-width="1px">20</text></g><line x1="34" y1="0" x2="34" y2="178" fill="rgb(0, 0, 0)" stroke="rgb(204, 204, 204)" stroke-width="1px"></line></g></g><g transform="translate(34, 0)" clip-path="url(#clip_0)"><clipPath id="clip_0"><rect width="296" height="178"></rect></clipPath><g><g><g><line x1="0" y1="0" x2="0" y2="178" fill="rgb(0, 0, 0)" stroke="rgb(60, 60, 60)" stroke-width="1px" opacity="0.25"></line><line x1="32.888888888888886" y1="0" x2="32.888888888888886" y2="178" fill="rgb(0, 0, 0)" stroke="rgb(60, 60, 60)" stroke-width="1px" opacity="0.25"></line><line x1="65.77777777777777" y1="0" x2="65.77777777777777" y2="178" fill="rgb(0, 0, 0)" stroke="rgb(60, 60, 60)" stroke-width="1px" opacity="0.25"></line><line x1="98.66666666666666" y1="0" x2="98.66666666666666" y2="178" fill="rgb(0, 0, 0)" stroke="rgb(60, 60, 60)" stroke-width="1px" opacity="0.25"></line><line x1="131.55555555555554" y1="0" x2="131.55555555555554" y2="178" fill="rgb(0, 0, 0)" stroke="rgb(60, 60, 60)" stroke-width="1px" opacity="0.25"></line><line x1="164.44444444444446" y1="0" x2="164.44444444444446" y2="178" fill="rgb(0, 0, 0)" stroke="rgb(60, 60, 60)" stroke-width="1px" opacity="0.25"></line><line x1="197.33333333333331" y1="0" x2="197.33333333333331" y2="178" fill="rgb(0, 0, 0)" stroke="rgb(60, 60, 60)" stroke-width="1px" opacity="0.25"></line><line x1="230.22222222222223" y1="0" x2="230.22222222222223" y2="178" fill="rgb(0, 0, 0)" stroke="rgb(60, 60, 60)" stroke-width="1px" opacity="0.25"></line><line x1="263.1111111111111" y1="0" x2="263.1111111111111" y2="178" fill="rgb(0, 0, 0)" stroke="rgb(60, 60, 60)" stroke-width="1px" opacity="0.25"></line><line x1="296" y1="0" x2="296" y2="178" fill="rgb(0, 0, 0)" stroke="rgb(60, 60, 60)" stroke-width="1px" opacity="0.25"></line></g><g><line x1="0" y1="178" x2="296" y2="178" fill="rgb(0, 0, 0)" stroke="rgb(60, 60, 60)" stroke-width="1px" opacity="0.25"></line><line x1="0" y1="161.8181818181818" x2="296" y2="161.8181818181818" fill="rgb(0, 0, 0)" stroke="rgb(60, 60, 60)" stroke-width="1px" opacity="0.25"></line><line x1="0" y1="145.63636363636363" x2="296" y2="145.63636363636363" fill="rgb(0, 0, 0)" stroke="rgb(60, 60, 60)" stroke-width="1px" opacity="0.25"></line><line x1="0" y1="129.45454545454547" x2="296" y2="129.45454545454547" fill="rgb(0, 0, 0)" stroke="rgb(60, 60, 60)" stroke-width="1px" opacity="0.25"></line><line x1="0" y1="113.27272727272727" x2="296" y2="113.27272727272727" fill="rgb(0, 0, 0)" stroke="rgb(60, 60, 60)" stroke-width="1px" opacity="0.25"></line><line x1="0" y1="97.0909090909091" x2="296" y2="97.0909090909091" fill="rgb(0, 0, 0)" stroke="rgb(60, 60, 60)" stroke-width="1px" opacity="0.25"></line><line x1="0" y1="80.90909090909092" x2="296" y2="80.90909090909092" fill="rgb(0, 0, 0)" stroke="rgb(60, 60, 60)" stroke-width="1px" opacity="0.25"></line><line x1="0" y1="64.72727272727273" x2="296" y2="64.72727272727273" fill="rgb(0, 0, 0)" stroke="rgb(60, 60, 60)" stroke-width="1px" opacity="0.25"></line><line x1="0" y1="48.54545454545453" x2="296" y2="48.54545454545453" fill="rgb(0, 0, 0)" stroke="rgb(60, 60, 60)" stroke-width="1px" opacity="0.25"></line><line x1="0" y1="32.363636363636346" x2="296" y2="32.363636363636346" fill="rgb(0, 0, 0)" stroke="rgb(60, 60, 60)" stroke-width="1px" opacity="0.25"></line><line x1="0" y1="16.181818181818187" x2="296" y2="16.181818181818187" fill="rgb(0, 0, 0)" stroke="rgb(60, 60, 60)" stroke-width="1px" opacity="0.25"></line><line x1="0" y1="0" x2="296" y2="0" fill="rgb(0, 0, 0)" stroke="rgb(60, 60, 60)" stroke-width="1px" opacity="0.25"></line></g></g></g><g><g><line x1="0" y1="161.8181818181818" x2="296" y2="161.8181818181818" fill="rgb(0, 0, 0)" stroke="rgb(153, 153, 153)" stroke-width="1.5px"></line></g></g><g><g><line x1="32.888888888888886" y1="0" x2="32.888888888888886" y2="178" fill="rgb(0, 0, 0)" stroke="rgb(153, 153, 153)" stroke-width="1.5px"></line></g></g><g><g><g><g><g><path stroke="rgb(0, 119, 187)" stroke-width="2px" d="M39.46666666666667,-28.0753712613502L41.111111111111114,19.04000314183446L42.75555555555555,51.41920798640581L44.4,68.97210532752054L46.044444444444444,86.8055599822926L47.68888888888889,92.82118912185673L49.33333333333333,99.74331484932056L50.977777777777774,106.42127136958348L52.62222222222223,110.841368996755L54.266666666666666,114.20354949388572L55.91111111111111,121.23076944137856L57.55555555555556,126.32270163830685L59.2,129.28891834345356L60.84444444444444,130.89983518955245L62.48888888888889,132.00232975244262L64.13333333333334,133.34354514184875L65.77777777777777,133.9772869034561L67.42222222222222,134.1347766110954L69.06666666666666,134.69268506226513L70.71111111111111,136.47416981919227L72.35555555555555,137.46988876181837L74,138.21741816996266L75.64444444444445,138.42304682839278L77.28888888888889,139.66181039219092L78.93333333333334,140.26501320254982L80.57777777777777,141.59642413647447L82.22222222222223,142.56499292330653L83.86666666666666,143.10940165335737L85.5111111111111,143.71277372096645L87.15555555555555,143.98208037660396L88.8,143.93252352938458L90.44444444444446,144.21746555357814L92.08888888888889,144.52841842653396L93.73333333333333,144.78207385488028L95.37777777777778,144.64493525833464L97.02222222222223,144.8850983346098L98.66666666666666,145.0895267618829L100.31111111111112,145.19147459828596L101.95555555555555,145.32878878434914L103.6,145.37110145630518L105.24444444444445,146.08082271776362L106.88888888888889,146.60050013110813L108.53333333333333,146.7859301062694L110.17777777777778,146.8686296767285L111.82222222222222,147.13341072087857L113.46666666666667,147.2319128858721L115.11111111111111,147.34857121719307L116.75555555555555,147.355374121529L118.4,147.42808548875755L120.04444444444445,147.39294026708012L121.68888888888888,147.5576770818069L123.33333333333334,147.66851962303133L124.97777777777777,147.63893317940295L126.62222222222222,147.62258062654575L128.26666666666668,147.62982243019462L129.9111111111111,147.96268360988626L131.55555555555554,148.10428965576108L133.20000000000002,148.18429029278528L134.84444444444443,148.3245130231263L136.4888888888889,148.37379423029367L138.13333333333333,148.43483187920322L139.77777777777777,148.41337119873606L141.42222222222222,148.44879058312216L143.06666666666666,148.49439844457626L144.7111111111111,148.49246786001137L146.35555555555555,148.66228730981507L148,148.51192217878565L149.64444444444445,148.6570898229061L151.2888888888889,148.63748032654397L152.93333333333334,148.47901859871678L154.57777777777778,148.59733086332054L156.22222222222223,148.66088646788384L157.86666666666667,148.7791271423908L159.5111111111111,148.937317787364L161.15555555555554,148.92937782278406L162.8,148.9581175021574L164.44444444444446,149.01451816285032L166.0888888888889,149.06785017976335L167.73333333333332,149.0788164799977L169.37777777777777,149.0224163582176L171.0222222222222,148.93097218466212L172.66666666666669,148.95701623749545L174.3111111111111,148.93891640181428L175.95555555555555,149.0682432350386L177.6,149.0569568973539L179.24444444444444,149.039259108193L180.8888888888889,149.03025927083925L182.53333333333333,149.01246423792276L184.17777777777778,149.0646336316985L185.82222222222222,149.1157910880129L187.46666666666667,149.1431198023855L189.1111111111111,149.09970689976265L190.75555555555556,149.1423169465523L192.4,149.1271053563913L194.04444444444445,149.1422844785179L195.6888888888889,149.19541495840647L197.33333333333331,149.0789390281167L198.9777777777778,149.02966045156714L200.62222222222223,149.0135158338176L202.26666666666668,149.0934788661561L203.9111111111111,149.0303549888512L205.55555555555554,149.09181068892147L207.2,149.18962657673984L208.84444444444446,149.16184224999066L210.4888888888889,149.21450267134864L212.13333333333333,149.2344580416714L213.77777777777777,149.21302367109158L215.42222222222222,149.2217067639606L217.06666666666666,149.27903033476713L218.7111111111111,149.31751400611512L220.35555555555555,149.32771409110526L222,149.1612417492646L223.64444444444445,149.17354299440794L225.2888888888889,149.2541305520117L226.93333333333334,149.395685764214L228.57777777777778,149.35150243437653L230.22222222222223,149.34452533806453L231.86666666666667,149.38592845360583L233.5111111111111,149.28084714833258L235.15555555555554,149.35993109825358L236.8,149.23555412591273L238.44444444444446,149.24140446928874L240.0888888888889,149.2894967128066L241.73333333333332,149.30780840473557L243.37777777777777,149.329531590575L245.0222222222222,149.44746307485613L246.66666666666669,149.27865080588865L248.3111111111111,149.31315895107218L249.95555555555555,149.30634400955933L251.6,149.20134939217192L253.24444444444444,149.32634826362124L254.8888888888889,149.34189123807164L256.53333333333336,149.28910209475643L258.1777777777778,149.219027546929L259.8222222222222,149.13386413762532L261.46666666666664,149.1934310579328" style="fill: none;" fill="none"></path></g><g><path stroke="rgb(255, 112, 67)" stroke-width="2px" d="M42.75555555555555,-41.22729468011522L44.4,6.047506822977084L46.044444444444444,38.702026109447075L47.68888888888889,59.38444653737561L49.33333333333333,62.60734654698608L50.977777777777774,77.39200152841647L52.62222222222223,87.24085690742237L54.266666666666666,83.15210135307792L55.91111111111111,97.21615150028026L57.55555555555556,107.62581158265031L59.2,115.33676516225754L60.84444444444444,119.88726698267783L62.48888888888889,122.57077227659578L64.13333333333334,125.54812775715395L65.77777777777777,127.80800290933215L67.42222222222222,129.5184183378297L69.06666666666666,130.9822331443566L70.71111111111111,132.4703611809713L72.35555555555555,132.90928446466077L74,134.04381062276332L75.64444444444445,135.01747453519386L77.28888888888889,136.12212452633983L78.93333333333334,137.2076581006308L80.57777777777777,139.13541436621432L82.22222222222223,140.69434482961083L83.86666666666666,141.79765299463878L85.5111111111111,142.68647938472543L87.15555555555555,143.2618765066711L88.8,143.67421545139922L90.44444444444446,144.17170430884659L92.08888888888889,144.4464143089069L93.73333333333333,144.72275867395572L95.37777777777778,145.04763639135712L97.02222222222223,145.386754793815L98.66666666666666,145.58449817975765L100.31111111111112,145.77114651758575L101.95555555555555,146.05735330793135L103.6,146.27130176761474L105.24444444444445,146.85469921699325L106.88888888888889,147.37441455399045L108.53333333333333,147.81130463527316L110.17777777777778,148.08928445096717L111.82222222222222,148.36754595273294L113.46666666666667,148.5793526396818L115.11111111111111,148.7772850387883L116.75555555555555,148.93715157362328L118.4,149.00102926426462L120.04444444444445,149.08391361045125L121.68888888888888,149.1863289240708L123.33333333333334,149.267757003962L124.97777777777777,149.3232068668739L126.62222222222222,149.42588264812284L128.26666666666668,149.5540409552844L129.9111111111111,149.880206612813L131.55555555555554,150.11912846937736L133.20000000000002,150.27312361767324L134.84444444444443,150.37747370507216L136.4888888888889,150.50270023148974L138.13333333333333,150.5715074085208L139.77777777777777,150.65002841826535L141.42222222222222,150.74312739038402L143.06666666666666,150.79612641827805L144.7111111111111,150.86142486348044L146.35555555555555,150.96477596876684L148,150.9019074668095L149.64444444444445,150.9555738325859L151.2888888888889,151.0336315453887L152.93333333333334,151.07126511893077L154.57777777777778,151.22060676887654L156.22222222222223,151.32179399903538L157.86666666666667,151.37844227137086L159.5111111111111,151.40005732352142L161.15555555555554,151.4737064754533L162.8,151.57824275207108L164.44444444444446,151.63169209004934L166.0888888888889,151.69780972126205L167.73333333333332,151.70095231953204L169.37777777777777,151.70691313258752L171.0222222222222,151.72429293775093L172.66666666666669,151.70189579303636L174.3111111111111,151.7040829787099L175.95555555555555,151.68585660145433L177.6,151.7495319143985L179.24444444444444,151.80537570312129L180.8888888888889,151.8394765012587L182.53333333333333,151.8185567351058L184.17777777777778,151.91474467630076L185.82222222222222,151.91757210561565L187.46666666666667,151.97432249522114L189.1111111111111,151.96627643059327L190.75555555555556,151.96917915878348L192.4,151.98149107039742L194.04444444444445,151.99630264127717L195.6888888888889,151.98666556126915L197.33333333333331,152.0201736547283L198.9777777777778,152.05340165460677L200.62222222222223,152.04802619988826L202.26666666666668,152.05216940930006L203.9111111111111,152.07872144070305L205.55555555555554,152.09790344918719L207.2,152.1740885532631L208.84444444444446,152.18733763003385L210.4888888888889,152.19630212802474L212.13333333333333,152.21057941014476L213.77777777777777,152.21439459564684L215.42222222222222,152.21580908789764L217.06666666666666,152.21529666458468L218.7111111111111,152.23683115277717L220.35555555555555,152.24138142887807L222,152.26898364612438L223.64444444444445,152.30249761683223L225.2888888888889,152.28922695602463L226.93333333333334,152.28908636219955L228.57777777777778,152.27744522881736L230.22222222222223,152.2901080343477L231.86666666666667,152.3167748821154L233.5111111111111,152.3021502066532L235.15555555555554,152.31056376835255L236.8,152.33039362319278L238.44444444444446,152.33001870565394L240.0888888888889,152.35742855352737L241.73333333333332,152.3397569889959L243.37777777777777,152.37767631024934L245.0222222222222,152.36590340588256L246.66666666666669,152.35761319040785L248.3111111111111,152.41021461206935L249.95555555555555,152.39683578670073L251.6,152.38069039087975L253.24444444444444,152.3826077702459L254.8888888888889,152.37829867683206L256.53333333333336,152.37584670917875L258.1777777777778,152.398047727836L259.8222222222222,152.39859241937623L261.46666666666664,152.3974362013802L263.1111111111111,152.3786806419693" style="fill: none;" fill="none"></path></g></g></g></g><g opacity="0.2"><g><g><g><path stroke="rgb(0, 119, 187)" stroke-width="2px" d="M36.17777777777778,-16.94626686789772L37.82222222222222,30.829029083251953L39.46666666666667,69.13505953008479L41.111111111111114,84.21752747622402L42.75555555555555,97.72198898142035L44.4,94.5643981586803L46.044444444444444,113.10644162784924L47.68888888888889,101.75369730862704L49.33333333333333,110.06372026963668L50.977777777777774,116.40186500549316L52.62222222222223,117.45708305185491L54.266666666666666,119.24023337797686L55.91111111111111,131.76333912936124L57.55555555555556,133.95700870860708L59.2,133.73698819767344L60.84444444444444,133.31580144708806L62.48888888888889,133.6559036428278L64.13333333333334,135.3552456335588L65.77777777777777,134.92786478996277L67.42222222222222,134.37100599028847L69.06666666666666,135.52953672409058L70.71111111111111,139.14637585119766L72.35555555555555,138.96346009861338L74,139.33870909430763L75.64444444444445,138.73148928989065L77.28888888888889,141.51995383609426L78.93333333333334,141.1698168624531L80.57777777777777,143.5935398015109L82.22222222222223,144.01784578236666L83.86666666666666,143.92601464011452L85.5111111111111,144.61783175034958L87.15555555555555,144.38604034077036L88.8,143.85818826068532L90.44444444444446,144.6448785825209L92.08888888888889,144.99484773115677L93.73333333333333,145.16255699504507L95.37777777777778,144.43922736428001L97.02222222222223,145.24534294821999L98.66666666666666,145.39616940238258L100.31111111111112,145.34439635276794L101.95555555555555,145.53476006334478L103.6,145.4345704642209L105.24444444444445,147.14540460976687L106.88888888888889,147.38001625104386L108.53333333333333,147.064075068994L110.17777777777778,146.99267903241244L111.82222222222222,147.5305822870948L113.46666666666667,147.37966613336044L115.11111111111111,147.52355871417305L116.75555555555555,147.3655784780329L118.4,147.53715253960002L120.04444444444445,147.34022243456405L121.68888888888888,147.80478230389681L123.33333333333334,147.83478343486786L124.97777777777777,147.59455351396042L126.62222222222222,147.59805179725993L128.26666666666668,147.64068513566798L129.9111111111111,148.46197537942368L131.55555555555554,148.3166987245733L133.20000000000002,148.30429124832153L134.84444444444443,148.53484711863777L136.4888888888889,148.44771604104477L138.13333333333333,148.5263883525675L139.77777777777777,148.38118017803538L141.42222222222222,148.50191965970126L143.06666666666666,148.56281023675746L144.7111111111111,148.489571983164L146.35555555555555,148.91701648452064L148,148.28637448224154L149.64444444444445,148.87484128908676L151.2888888888889,148.60806608200073L152.93333333333334,148.24132600697604L154.57777777777778,148.77479926022616L156.22222222222223,148.7562198747288L157.86666666666667,148.95648815415123L159.5111111111111,149.17460375482386L161.15555555555554,148.91746787591416L162.8,149.00122702121735L164.44444444444446,149.09911915388975L166.0888888888889,149.1478482051329L167.73333333333332,149.09526593034917L169.37777777777777,148.9378161755475L171.0222222222222,148.7938059243289L172.66666666666669,148.9960823167454L174.3111111111111,148.91176664829254L175.95555555555555,149.26223348487508L177.6,149.04002739082682L179.24444444444444,149.01271242445165L180.8888888888889,149.01675951480865L182.53333333333333,148.985771688548L184.17777777777778,149.14288772236216L185.82222222222222,149.1925272724845L187.46666666666667,149.18411287394437L189.1111111111111,149.0345875458284L190.75555555555556,149.2062320167368L192.4,149.1042879711498L194.04444444444445,149.1650531617078L195.6888888888889,149.2751106782393L197.33333333333331,148.90422513268211L198.9777777777778,148.95574258674276L200.62222222222223,148.98929890719327L202.26666666666668,149.21342341466385L203.9111111111111,148.93566917289388L205.55555555555554,149.18399423902684L207.2,149.33635040846738L208.84444444444446,149.1201657598669L210.4888888888889,149.29349330338565L212.13333333333333,149.26439109715548L213.77777777777777,149.1808721152219L215.42222222222222,149.23473140326413L217.06666666666666,149.36501569097692L218.7111111111111,149.37523951313713L220.35555555555555,149.34301421859047L222,148.9115332365036L223.64444444444445,149.19199486212295L225.2888888888889,149.37501188841733L226.93333333333334,149.60801858251745L228.57777777777778,149.2852274396203L230.22222222222223,149.33405969359657L231.86666666666667,149.44803312691775L233.5111111111111,149.12322519042274L235.15555555555554,149.4785570231351L236.8,149.0489886674014L238.44444444444446,149.2501799843528L240.0888888888889,149.3616350780834L241.73333333333332,149.33527594262904L243.37777777777777,149.36211636933413L245.0222222222222,149.62436030127785L246.66666666666669,149.0254324024374L248.3111111111111,149.3649211688475L249.95555555555555,149.29612159729004L251.6,149.0438574660908L253.24444444444444,149.51384657079524L254.8888888888889,149.36520569974726L256.53333333333336,149.20991837978363L258.1777777777778,149.11391572518784L259.8222222222222,149.00611902366984L261.46666666666664,149.282781438394" style="fill: none;" fill="none"></path></g><g><path stroke="rgb(255, 112, 67)" stroke-width="2px" d="M37.82222222222222,-33.52108105746183L39.46666666666667,12.158987218683421L41.111111111111114,43.13756960088557L42.75555555555555,64.99566927823155L44.4,74.97462125258012L46.044444444444444,86.86109924316406L47.68888888888889,90.09543046084318L49.33333333333333,67.41246509552002L50.977777777777774,99.48852656104349L52.62222222222223,101.98198175430298L54.266666666666666,77.02697831934148L55.91111111111111,118.29569495807993L57.55555555555556,123.23296000740746L59.2,126.89993251453745L60.84444444444444,126.71186434138906L62.48888888888889,126.59562141245061L64.13333333333334,130.01388883590698L65.77777777777777,131.19769170067528L67.42222222222222,132.08398519862783L69.06666666666666,133.1779264536771L70.71111111111111,134.70253560759804L72.35555555555555,133.56766627051613L74,135.74559502168137L75.64444444444445,136.47796791250056L77.28888888888889,137.77909781716087L78.93333333333334,138.8359574621374L80.57777777777777,142.027047699148L82.22222222222223,143.0327400077473L83.86666666666666,143.4526150226593L85.5111111111111,144.01971886374733L87.15555555555555,144.1249721483751L88.8,144.29272385077041L90.44444444444446,144.91793758218938L92.08888888888889,144.85847930474716L93.73333333333333,145.13727521896362L95.37777777777778,145.5349529656497L97.02222222222223,145.89543239636856L98.66666666666666,145.88111325827512L100.31111111111112,146.05111902410334L101.95555555555555,146.48666349324313L103.6,146.5922244570472L105.24444444444445,147.72979539090937L106.88888888888889,148.15398755940524L108.53333333333333,148.46663975715637L110.17777777777778,148.50625417449257L111.82222222222222,148.7849382053722L113.46666666666667,148.8970626701008L115.11111111111111,149.07418363744563L116.75555555555555,149.1769513758746L118.4,149.0968458002264L120.04444444444445,149.2082401297309L121.68888888888888,149.33995189450005L123.33333333333334,149.38989912379873L124.97777777777777,149.4063816612417L126.62222222222222,149.57989631999624L128.26666666666668,149.7462784160267L129.9111111111111,150.36945509910583L131.55555555555554,150.4775112542239L133.20000000000002,150.50411634011704L134.84444444444443,150.53399883617055L136.4888888888889,150.69054002111608L138.13333333333333,150.6747181740674L139.77777777777777,150.76780993288213L141.42222222222222,150.88277584856206L143.06666666666666,150.87562496011907L144.7111111111111,150.95937253128398L146.35555555555555,151.1198026266965L148,150.80760471387345L149.64444444444445,151.03607338125056L151.2888888888889,151.15071811459282L152.93333333333334,151.12771547924388L154.57777777777778,151.44461924379522L156.22222222222223,151.47357484427366L157.86666666666667,151.46341467987406L159.5111111111111,151.43247990174729L161.15555555555554,151.5841802033511L162.8,151.73504716699773L164.44444444444446,151.71186609701675L166.0888888888889,151.7969861680811L167.73333333333332,151.70566621693698L169.37777777777777,151.71585435217077L171.0222222222222,151.750362645496L172.66666666666669,151.6683000759645L174.3111111111111,151.70736375722018L175.95555555555555,151.658517035571L177.6,151.84504488381472L179.24444444444444,151.8891413862055L180.8888888888889,151.8906276984648L182.53333333333333,151.78717708587646L184.17777777777778,152.05902658809316L185.82222222222222,151.921813249588L187.46666666666667,152.05944807962936L189.1111111111111,151.95420733365145L190.75555555555556,151.9735332510688L192.4,151.99995893781835L194.04444444444445,152.01851999759674L195.6888888888889,151.97220994125712L197.33333333333331,152.07043579491702L198.9777777777778,152.1032436544245L200.62222222222223,152.03996301781046L202.26666666666668,152.05838422341782L203.9111111111111,152.11854948780754L205.55555555555554,152.12667646191338L207.2,152.28836620937693L208.84444444444446,152.20721124519002L210.4888888888889,152.2097488750111L212.13333333333333,152.2319953333248L213.77777777777777,152.2201173739L215.42222222222222,152.21793082627383L217.06666666666666,152.21452802961522L218.7111111111111,152.26913288506594L220.35555555555555,152.24820684302938L222,152.31038697199386L223.64444444444445,152.352768572894L225.2888888888889,152.26932096481323L226.93333333333334,152.2888754714619L228.57777777777778,152.2599835287441L230.22222222222223,152.30910224264318L231.86666666666667,152.356775153767L233.5111111111111,152.28021319345993L235.15555555555554,152.32318411090156L236.8,152.36013840545309L238.44444444444446,152.3294563293457L240.0888888888889,152.3985433253375L241.73333333333332,152.31324964219874L243.37777777777777,152.43455529212952L245.0222222222222,152.34824404933235L246.66666666666669,152.34517786719582L248.3111111111111,152.4891167445616L249.95555555555555,152.3767675486478L251.6,152.3564722971483L253.24444444444444,152.38548383929512L254.8888888888889,152.37183503671127L256.53333333333336,152.37216875769874L258.1777777777778,152.4313492558219L259.8222222222222,152.39940945668656L261.46666666666664,152.3957018743862L263.1111111111111,152.350547302853" style="fill: none;" fill="none"></path></g></g></g></g></g><g><g><span fill="rgb(0, 0, 0)" stroke="none" stroke-width="1px">Alt + Scroll to Zoom</span></g></g></g><g transform="translate(34, 178)" clip-path="url(#clip_1)"><clipPath id="clip_1"><rect width="296" height="22"></rect></clipPath><g><g><line x1="0" y1="0" x2="0" y2="5" style="visibility: inherit;" fill="rgb(0, 0, 0)" stroke="rgb(204, 204, 204)" stroke-width="1px"></line><line x1="32.888888888888886" y1="0" x2="32.888888888888886" y2="5" style="visibility: inherit;" fill="rgb(0, 0, 0)" stroke="rgb(204, 204, 204)" stroke-width="1px"></line><line x1="65.77777777777777" y1="0" x2="65.77777777777777" y2="5" style="visibility: inherit;" fill="rgb(0, 0, 0)" stroke="rgb(204, 204, 204)" stroke-width="1px"></line><line x1="98.66666666666666" y1="0" x2="98.66666666666666" y2="5" style="visibility: inherit;" fill="rgb(0, 0, 0)" stroke="rgb(204, 204, 204)" stroke-width="1px"></line><line x1="131.55555555555554" y1="0" x2="131.55555555555554" y2="5" style="visibility: inherit;" fill="rgb(0, 0, 0)" stroke="rgb(204, 204, 204)" stroke-width="1px"></line><line x1="164.44444444444446" y1="0" x2="164.44444444444446" y2="5" style="visibility: inherit;" fill="rgb(0, 0, 0)" stroke="rgb(204, 204, 204)" stroke-width="1px"></line><line x1="197.33333333333331" y1="0" x2="197.33333333333331" y2="5" style="visibility: inherit;" fill="rgb(0, 0, 0)" stroke="rgb(204, 204, 204)" stroke-width="1px"></line><line x1="230.22222222222223" y1="0" x2="230.22222222222223" y2="5" style="visibility: inherit;" fill="rgb(0, 0, 0)" stroke="rgb(204, 204, 204)" stroke-width="1px"></line><line x1="263.1111111111111" y1="0" x2="263.1111111111111" y2="5" style="visibility: inherit;" fill="rgb(0, 0, 0)" stroke="rgb(204, 204, 204)" stroke-width="1px"></line><line x1="296" y1="0" x2="296" y2="5" style="visibility: inherit;" fill="rgb(0, 0, 0)" stroke="rgb(204, 204, 204)" stroke-width="1px"></line></g><g transform="translate(0, 8)"><text x="0" y="0" dx="0em" dy="0.95em" style="text-anchor: middle; visibility: hidden; font-family: &quot;Helvetica Neue&quot;, sans-serif; font-size: 12px; font-weight: 200;" fill="rgb(50, 49, 63)" stroke="none" stroke-width="1px">-20</text><text x="32.888888888888886" y="0" dx="0em" dy="0.95em" style="text-anchor: middle; visibility: inherit; font-family: &quot;Helvetica Neue&quot;, sans-serif; font-size: 12px; font-weight: 200;" fill="rgb(50, 49, 63)" stroke="none" stroke-width="1px">0</text><text x="65.77777777777777" y="0" dx="0em" dy="0.95em" style="text-anchor: middle; visibility: inherit; font-family: &quot;Helvetica Neue&quot;, sans-serif; font-size: 12px; font-weight: 200;" fill="rgb(50, 49, 63)" stroke="none" stroke-width="1px">20</text><text x="98.66666666666666" y="0" dx="0em" dy="0.95em" style="text-anchor: middle; visibility: inherit; font-family: &quot;Helvetica Neue&quot;, sans-serif; font-size: 12px; font-weight: 200;" fill="rgb(50, 49, 63)" stroke="none" stroke-width="1px">40</text><text x="131.55555555555554" y="0" dx="0em" dy="0.95em" style="text-anchor: middle; visibility: inherit; font-family: &quot;Helvetica Neue&quot;, sans-serif; font-size: 12px; font-weight: 200;" fill="rgb(50, 49, 63)" stroke="none" stroke-width="1px">60</text><text x="164.44444444444446" y="0" dx="0em" dy="0.95em" style="text-anchor: middle; visibility: inherit; font-family: &quot;Helvetica Neue&quot;, sans-serif; font-size: 12px; font-weight: 200;" fill="rgb(50, 49, 63)" stroke="none" stroke-width="1px">80</text><text x="197.33333333333331" y="0" dx="0em" dy="0.95em" style="text-anchor: middle; visibility: inherit; font-family: &quot;Helvetica Neue&quot;, sans-serif; font-size: 12px; font-weight: 200;" fill="rgb(50, 49, 63)" stroke="none" stroke-width="1px">100</text><text x="230.22222222222223" y="0" dx="0em" dy="0.95em" style="text-anchor: middle; visibility: inherit; font-family: &quot;Helvetica Neue&quot;, sans-serif; font-size: 12px; font-weight: 200;" fill="rgb(50, 49, 63)" stroke="none" stroke-width="1px">120</text><text x="263.1111111111111" y="0" dx="0em" dy="0.95em" style="text-anchor: middle; visibility: inherit; font-family: &quot;Helvetica Neue&quot;, sans-serif; font-size: 12px; font-weight: 200;" fill="rgb(50, 49, 63)" stroke="none" stroke-width="1px">140</text><text x="296" y="0" dx="0em" dy="0.95em" style="text-anchor: middle; visibility: hidden; font-family: &quot;Helvetica Neue&quot;, sans-serif; font-size: 12px; font-weight: 200;" fill="rgb(50, 49, 63)" stroke="none" stroke-width="1px">160</text></g><line x1="0" y1="0" x2="296" y2="0" fill="rgb(0, 0, 0)" stroke="rgb(204, 204, 204)" stroke-width="1px"></line></g></g></g></g></svg>