<svg viewBox="0 0 330 200" xmlns="http://www.w3.org/2000/svg"><g><g><g><g><g><line x1="34" y1="178" x2="29" y2="178" style="visibility: inherit;" fill="rgb(0, 0, 0)" stroke="rgb(204, 204, 204)" stroke-width="1px"></line><line x1="34" y1="161.8181818181818" x2="29" y2="161.8181818181818" style="visibility: inherit;" fill="rgb(0, 0, 0)" stroke="rgb(204, 204, 204)" stroke-width="1px"></line><line x1="34" y1="145.63636363636363" x2="29" y2="145.63636363636363" style="visibility: inherit;" fill="rgb(0, 0, 0)" stroke="rgb(204, 204, 204)" stroke-width="1px"></line><line x1="34" y1="129.45454545454547" x2="29" y2="129.45454545454547" style="visibility: inherit;" fill="rgb(0, 0, 0)" stroke="rgb(204, 204, 204)" stroke-width="1px"></line><line x1="34" y1="113.27272727272727" x2="29" y2="113.27272727272727" style="visibility: inherit;" fill="rgb(0, 0, 0)" stroke="rgb(204, 204, 204)" stroke-width="1px"></line><line x1="34" y1="97.0909090909091" x2="29" y2="97.0909090909091" style="visibility: inherit;" fill="rgb(0, 0, 0)" stroke="rgb(204, 204, 204)" stroke-width="1px"></line><line x1="34" y1="80.90909090909092" x2="29" y2="80.90909090909092" style="visibility: inherit;" fill="rgb(0, 0, 0)" stroke="rgb(204, 204, 204)" stroke-width="1px"></line><line x1="34" y1="64.72727272727273" x2="29" y2="64.72727272727273" style="visibility: inherit;" fill="rgb(0, 0, 0)" stroke="rgb(204, 204, 204)" stroke-width="1px"></line><line x1="34" y1="48.54545454545453" x2="29" y2="48.54545454545453" style="visibility: inherit;" fill="rgb(0, 0, 0)" stroke="rgb(204, 204, 204)" stroke-width="1px"></line><line x1="34" y1="32.363636363636346" x2="29" y2="32.363636363636346" style="visibility: inherit;" fill="rgb(0, 0, 0)" stroke="rgb(204, 204, 204)" stroke-width="1px"></line><line x1="34" y1="16.181818181818187" x2="29" y2="16.181818181818187" style="visibility: inherit;" fill="rgb(0, 0, 0)" stroke="rgb(204, 204, 204)" stroke-width="1px"></line><line x1="34" y1="0" x2="29" y2="0" style="visibility: inherit;" fill="rgb(0, 0, 0)" stroke="rgb(204, 204, 204)" stroke-width="1px"></line></g><g transform="translate(24, 0)"><text x="0" y="178" dx="0em" dy="0.3em" style="text-anchor: end; visibility: hidden; font-family: &quot;Helvetica Neue&quot;, sans-serif; font-size: 12px; font-weight: 200;" fill="rgb(50, 49, 63)" stroke="none" stroke-width="1px">-2</text><text x="0" y="161.8181818181818" dx="0em" dy="0.3em" style="text-anchor: end; visibility: inherit; font-family: &quot;Helvetica Neue&quot;, sans-serif; font-size: 12px; font-weight: 200;" fill="rgb(50, 49, 63)" stroke="none" stroke-width="1px">0</text><text x="0" y="145.63636363636363" dx="0em" dy="0.3em" style="text-anchor: end; visibility: hidden; font-family: &quot;Helvetica Neue&quot;, sans-serif; font-size: 12px; font-weight: 200;" fill="rgb(50, 49, 63)" stroke="none" stroke-width="1px">2</text><text x="0" y="129.45454545454547" dx="0em" dy="0.3em" style="text-anchor: end; visibility: inherit; font-family: &quot;Helvetica Neue&quot;, sans-serif; font-size: 12px; font-weight: 200;" fill="rgb(50, 49, 63)" stroke="none" stroke-width="1px">4</text><text x="0" y="113.27272727272727" dx="0em" dy="0.3em" style="text-anchor: end; visibility: hidden; font-family: &quot;Helvetica Neue&quot;, sans-serif; font-size: 12px; font-weight: 200;" fill="rgb(50, 49, 63)" stroke="none" stroke-width="1px">6</text><text x="0" y="97.0909090909091" dx="0em" dy="0.3em" style="text-anchor: end; visibility: inherit; font-family: &quot;Helvetica Neue&quot;, sans-serif; font-size: 12px; font-weight: 200;" fill="rgb(50, 49, 63)" stroke="none" stroke-width="1px">8</text><text x="0" y="80.90909090909092" dx="0em" dy="0.3em" style="text-anchor: end; visibility: hidden; font-family: &quot;Helvetica Neue&quot;, sans-serif; font-size: 12px; font-weight: 200;" fill="rgb(50, 49, 63)" stroke="none" stroke-width="1px">10</text><text x="0" y="64.72727272727273" dx="0em" dy="0.3em" style="text-anchor: end; visibility: inherit; font-family: &quot;Helvetica Neue&quot;, sans-serif; font-size: 12px; font-weight: 200;" fill="rgb(50, 49, 63)" stroke="none" stroke-width="1px">12</text><text x="0" y="48.54545454545453" dx="0em" dy="0.3em" style="text-anchor: end; visibility: hidden; font-family: &quot;Helvetica Neue&quot;, sans-serif; font-size: 12px; font-weight: 200;" fill="rgb(50, 49, 63)" stroke="none" stroke-width="1px">14</text><text x="0" y="32.363636363636346" dx="0em" dy="0.3em" style="text-anchor: end; visibility: inherit; font-family: &quot;Helvetica Neue&quot;, sans-serif; font-size: 12px; font-weight: 200;" fill="rgb(50, 49, 63)" stroke="none" stroke-width="1px">16</text><text x="0" y="16.181818181818187" dx="0em" dy="0.3em" style="text-anchor: end; visibility: hidden; font-family: &quot;Helvetica Neue&quot;, sans-serif; font-size: 12px; font-weight: 200;" fill="rgb(50, 49, 63)" stroke="none" stroke-width="1px">18</text><text x="0" y="0" dx="0em" dy="0.3em" style="text-anchor: end; visibility: hidden; font-family: &quot;Helvetica Neue&quot;, sans-serif; font-size: 12px; font-weight: 200;" fill="rgb(50, 49, 63)" stroke="none" stroke-width="1px">20</text></g><line x1="34" y1="0" x2="34" y2="178" fill="rgb(0, 0, 0)" stroke="rgb(204, 204, 204)" stroke-width="1px"></line></g></g><g transform="translate(34, 0)" clip-path="url(#clip_0)"><clipPath id="clip_0"><rect width="296" height="178"></rect></clipPath><g><g><g><line x1="0" y1="0" x2="0" y2="178" fill="rgb(0, 0, 0)" stroke="rgb(60, 60, 60)" stroke-width="1px" opacity="0.25"></line><line x1="32.888888888888886" y1="0" x2="32.888888888888886" y2="178" fill="rgb(0, 0, 0)" stroke="rgb(60, 60, 60)" stroke-width="1px" opacity="0.25"></line><line x1="65.77777777777777" y1="0" x2="65.77777777777777" y2="178" fill="rgb(0, 0, 0)" stroke="rgb(60, 60, 60)" stroke-width="1px" opacity="0.25"></line><line x1="98.66666666666666" y1="0" x2="98.66666666666666" y2="178" fill="rgb(0, 0, 0)" stroke="rgb(60, 60, 60)" stroke-width="1px" opacity="0.25"></line><line x1="131.55555555555554" y1="0" x2="131.55555555555554" y2="178" fill="rgb(0, 0, 0)" stroke="rgb(60, 60, 60)" stroke-width="1px" opacity="0.25"></line><line x1="164.44444444444446" y1="0" x2="164.44444444444446" y2="178" fill="rgb(0, 0, 0)" stroke="rgb(60, 60, 60)" stroke-width="1px" opacity="0.25"></line><line x1="197.33333333333331" y1="0" x2="197.33333333333331" y2="178" fill="rgb(0, 0, 0)" stroke="rgb(60, 60, 60)" stroke-width="1px" opacity="0.25"></line><line x1="230.22222222222223" y1="0" x2="230.22222222222223" y2="178" fill="rgb(0, 0, 0)" stroke="rgb(60, 60, 60)" stroke-width="1px" opacity="0.25"></line><line x1="263.1111111111111" y1="0" x2="263.1111111111111" y2="178" fill="rgb(0, 0, 0)" stroke="rgb(60, 60, 60)" stroke-width="1px" opacity="0.25"></line><line x1="296" y1="0" x2="296" y2="178" fill="rgb(0, 0, 0)" stroke="rgb(60, 60, 60)" stroke-width="1px" opacity="0.25"></line></g><g><line x1="0" y1="178" x2="296" y2="178" fill="rgb(0, 0, 0)" stroke="rgb(60, 60, 60)" stroke-width="1px" opacity="0.25"></line><line x1="0" y1="161.8181818181818" x2="296" y2="161.8181818181818" fill="rgb(0, 0, 0)" stroke="rgb(60, 60, 60)" stroke-width="1px" opacity="0.25"></line><line x1="0" y1="145.63636363636363" x2="296" y2="145.63636363636363" fill="rgb(0, 0, 0)" stroke="rgb(60, 60, 60)" stroke-width="1px" opacity="0.25"></line><line x1="0" y1="129.45454545454547" x2="296" y2="129.45454545454547" fill="rgb(0, 0, 0)" stroke="rgb(60, 60, 60)" stroke-width="1px" opacity="0.25"></line><line x1="0" y1="113.27272727272727" x2="296" y2="113.27272727272727" fill="rgb(0, 0, 0)" stroke="rgb(60, 60, 60)" stroke-width="1px" opacity="0.25"></line><line x1="0" y1="97.0909090909091" x2="296" y2="97.0909090909091" fill="rgb(0, 0, 0)" stroke="rgb(60, 60, 60)" stroke-width="1px" opacity="0.25"></line><line x1="0" y1="80.90909090909092" x2="296" y2="80.90909090909092" fill="rgb(0, 0, 0)" stroke="rgb(60, 60, 60)" stroke-width="1px" opacity="0.25"></line><line x1="0" y1="64.72727272727273" x2="296" y2="64.72727272727273" fill="rgb(0, 0, 0)" stroke="rgb(60, 60, 60)" stroke-width="1px" opacity="0.25"></line><line x1="0" y1="48.54545454545453" x2="296" y2="48.54545454545453" fill="rgb(0, 0, 0)" stroke="rgb(60, 60, 60)" stroke-width="1px" opacity="0.25"></line><line x1="0" y1="32.363636363636346" x2="296" y2="32.363636363636346" fill="rgb(0, 0, 0)" stroke="rgb(60, 60, 60)" stroke-width="1px" opacity="0.25"></line><line x1="0" y1="16.181818181818187" x2="296" y2="16.181818181818187" fill="rgb(0, 0, 0)" stroke="rgb(60, 60, 60)" stroke-width="1px" opacity="0.25"></line><line x1="0" y1="0" x2="296" y2="0" fill="rgb(0, 0, 0)" stroke="rgb(60, 60, 60)" stroke-width="1px" opacity="0.25"></line></g></g></g><g><g><line x1="0" y1="161.8181818181818" x2="296" y2="161.8181818181818" fill="rgb(0, 0, 0)" stroke="rgb(153, 153, 153)" stroke-width="1.5px"></line></g></g><g><g><line x1="32.888888888888886" y1="0" x2="32.888888888888886" y2="178" fill="rgb(0, 0, 0)" stroke="rgb(153, 153, 153)" stroke-width="1.5px"></line></g></g><g><g><g><g><g><path stroke="rgb(0, 119, 187)" stroke-width="2px" d="M41.111111111111114,-0.6453797207622358L42.75555555555555,32.938400678576755L44.4,59.318326535704L46.044444444444444,77.60149097494683L47.68888888888889,87.2476488048657L49.33333333333333,93.2763750239134L50.977777777777774,101.90495494183858L52.62222222222223,104.58801765452131L54.266666666666666,106.9554434668779L55.91111111111111,115.32528000591759L57.55555555555556,120.83875224059841L59.2,122.9207693084489L60.84444444444444,124.21517242497598L62.48888888888889,125.85856402104167L64.13333333333334,127.55349915373705L65.77777777777777,128.93202541827418L67.42222222222222,130.36544875394907L69.06666666666666,132.6895327422773L70.71111111111111,133.82250033471894L72.35555555555555,133.37955584155185L74,134.24630588341168L75.64444444444445,134.09576799337958L77.28888888888889,136.56480295153563L78.93333333333334,136.92398020454323L80.57777777777777,138.7301939520115L82.22222222222223,140.04629440708055L83.86666666666666,140.95526619669565L85.5111111111111,141.2838501713716L87.15555555555555,141.77347825760955L88.8,141.8551867904125L90.44444444444446,142.22159793278257L92.08888888888889,141.9974761002431L93.73333333333333,142.62842083170864L95.37777777777778,142.81250742289168L97.02222222222223,142.90865837204313L98.66666666666666,142.89782309820998L100.31111111111112,143.00193211560395L101.95555555555555,143.2344046422017L103.6,143.23655637757327L105.24444444444445,143.85405454166275L106.88888888888889,144.44182779380984L108.53333333333333,144.72203532452028L110.17777777777778,145.12435211461116L111.82222222222222,145.23526499864045L113.46666666666667,145.38805857797357L115.11111111111111,145.4798311767251L116.75555555555555,145.40018874162945L118.4,145.36317108723222L120.04444444444445,145.32922894801857L121.68888888888888,145.506167999998L123.33333333333334,145.67894021126622L124.97777777777777,145.79203838976025L126.62222222222222,145.91354612848426L128.26666666666668,145.6797480668555L129.9111111111111,145.95704986477568L131.55555555555554,146.08577139814952L133.20000000000002,146.23508149279402L134.84444444444443,146.34301718843292L136.4888888888889,146.30784903899942L138.13333333333333,146.52926531287608L139.77777777777777,146.449517832766L141.42222222222222,146.56808346251304L143.06666666666666,146.549758995195L144.7111111111111,146.5833039137893L146.35555555555555,146.66869357274285L148,146.7440023473769L149.64444444444445,146.8489456597814L151.2888888888889,146.8306565667409L152.93333333333334,146.8328799434001L154.57777777777778,146.82300673128498L156.22222222222223,146.9186798183564L157.86666666666667,146.82326877947764L159.5111111111111,146.98789722984338L161.15555555555554,147.04642793477578L162.8,147.0036855862092L164.44444444444446,147.05884926742348L166.0888888888889,147.11981838697L167.73333333333332,147.2248905936652L169.37777777777777,147.14206389534206L171.0222222222222,147.12750425957825L172.66666666666669,147.16744814637306L174.3111111111111,147.16014269999647L175.95555555555555,147.18866007768665L177.6,147.20600970315883L179.24444444444444,147.1875223273621L180.8888888888889,147.172559895843L182.53333333333333,147.22275058930717L184.17777777777778,147.22443544949272L185.82222222222222,147.26172473047916L187.46666666666667,147.1622176073693L189.1111111111111,147.15403406690322L190.75555555555556,147.2620782730679L192.4,147.2189921609635L194.04444444444445,147.13009037534118L195.6888888888889,147.23168226239733L197.33333333333331,147.22810925881112L198.9777777777778,147.29209120936855L200.62222222222223,147.35707697789468L202.26666666666668,147.35857864766044L203.9111111111111,147.3944061550422L205.55555555555554,147.46417376064255L207.2,147.46894152559634L208.84444444444446,147.3748599028456L210.4888888888889,147.4262155397076L212.13333333333333,147.43151952102363L213.77777777777777,147.4824456160829L215.42222222222222,147.436630093191L217.06666666666666,147.3967892448725L218.7111111111111,147.40910523006505L220.35555555555555,147.34139216681018L222,147.35086298646527L223.64444444444445,147.38271846298846L225.2888888888889,147.3664978337121L226.93333333333334,147.37573932685717L228.57777777777778,147.51001719012092L230.22222222222223,147.636399362909L231.86666666666667,147.56348517150766L233.5111111111111,147.55561725698925L235.15555555555554,147.49924653033406L236.8,147.49560520316248L238.44444444444446,147.57071173078145L240.0888888888889,147.52870610559506L241.73333333333332,147.58890173828047L243.37777777777777,147.72698727626684L245.0222222222222,147.68608328275783L246.66666666666669,147.70975951839682L248.3111111111111,147.63581469350575L249.95555555555555,147.48455137211013L251.6,147.4965308320399L253.24444444444444,147.5758566397463L254.8888888888889,147.40615230754494L256.53333333333336,147.37670510980774L258.1777777777778,147.43628606238482L259.8222222222222,147.51976059318872L261.46666666666664,147.49931907158233" style="fill: none;" fill="none"></path></g><g><path stroke="rgb(255, 112, 67)" stroke-width="2px" d="M42.75555555555555,-6.1456158191697625L44.4,25.509115641126698L46.044444444444444,48.77075652776438L47.68888888888889,64.25013740281702L49.33333333333333,63.283462629654025L50.977777777777774,76.45601412264737L52.62222222222223,86.1908025900101L54.266666666666666,79.95921175642737L55.91111111111111,94.56336049871466L57.55555555555556,105.72746540005194L59.2,113.33704724658708L60.84444444444444,117.81214748432421L62.48888888888889,121.03648192858746L64.13333333333334,123.91359684786721L65.77777777777777,125.99139455868422L67.42222222222222,127.665103701365L69.06666666666666,129.2265355431707L70.71111111111111,130.98027710408817L72.35555555555555,131.02168648051443L74,132.3700424039392L75.64444444444445,133.70440361762303L77.28888888888889,134.8277544853949L78.93333333333334,135.71243787902904L80.57777777777777,137.76577809606079L82.22222222222223,139.45119577715374L83.86666666666666,140.86105265283604L85.5111111111111,141.74100007590945L87.15555555555555,142.40838671870594L88.8,142.83791067505427L90.44444444444446,143.35061951719064L92.08888888888889,143.73792504564696L93.73333333333333,144.11696735449866L95.37777777777778,144.37110816497994L97.02222222222223,144.6833659141842L98.66666666666666,144.81525652107834L100.31111111111112,145.05144654061544L101.95555555555555,145.41014941063727L103.6,145.6772414049694L105.24444444444445,146.28114605396803L106.88888888888889,146.92640669401248L108.53333333333333,147.29812009109096L110.17777777777778,147.6467182705174L111.82222222222222,147.96518912729277L113.46666666666667,148.1175056083557L115.11111111111111,148.3548542543939L116.75555555555555,148.55579385937187L118.4,148.73009287421857L120.04444444444445,148.82994077539155L121.68888888888888,148.90356795641125L123.33333333333334,149.03711821771526L124.97777777777777,149.14737701389222L126.62222222222222,149.2496185257778L128.26666666666668,149.30631795960232L129.9111111111111,149.63699474432968L131.55555555555554,149.87671585922237L133.20000000000002,150.07057465449938L134.84444444444443,150.23646582402733L136.4888888888889,150.3500403413L138.13333333333333,150.4077459505311L139.77777777777777,150.52549516310597L141.42222222222222,150.615056061015L143.06666666666666,150.6960952203881L144.7111111111111,150.74335605413003L146.35555555555555,150.80218455987256L148,150.7647582659764L149.64444444444445,150.85475874633178L151.2888888888889,150.96999780026155L152.93333333333334,150.97725200033074L154.57777777777778,151.12562190897611L156.22222222222223,151.24300820907723L157.86666666666667,151.30256840103783L159.5111111111111,151.36508822964163L161.15555555555554,151.44728864636846L162.8,151.4979580551251L164.44444444444446,151.58787739173124L166.0888888888889,151.65047911885165L167.73333333333332,151.70437203586678L169.37777777777777,151.738025694623L171.0222222222222,151.73429607504488L172.66666666666669,151.74282996800417L174.3111111111111,151.74107063597745L175.95555555555555,151.69213128341835L177.6,151.74364466384844L179.24444444444444,151.83107615388187L180.8888888888889,151.88807982620557L182.53333333333333,151.92381213068234L184.17777777777778,151.9369956805229L185.82222222222222,152.0312971076809L187.46666666666667,152.04697765987498L189.1111111111111,152.06266997667618L190.75555555555556,152.08132422974822L192.4,152.09813679734268L194.04444444444445,152.13639733372676L195.6888888888889,152.14372239598578L197.33333333333331,152.1362867349811L198.9777777777778,152.13702598451866L200.62222222222223,152.19253118234994L202.26666666666668,152.18890006833692L203.9111111111111,152.23617962188482L205.55555555555554,152.23796194415556L207.2,152.26767732979707L208.84444444444446,152.28535918382101L210.4888888888889,152.30405823309866L212.13333333333333,152.29368302123987L213.77777777777777,152.280487562239L215.42222222222222,152.31084789120166L217.06666666666666,152.3211223006861L218.7111111111111,152.3051375179225L220.35555555555555,152.32080373285072L222,152.33714524415214L223.64444444444445,152.39395118332877L225.2888888888889,152.40322943944645L226.93333333333334,152.41081415122642L228.57777777777778,152.42871381779412L230.22222222222223,152.43229462739495L231.86666666666667,152.40305790814668L233.5111111111111,152.3970869284554L235.15555555555554,152.3997424153768L236.8,152.42501292223884L238.44444444444446,152.41708983591832L240.0888888888889,152.43613588470112L241.73333333333332,152.43521236519206L243.37777777777777,152.42766978878439L245.0222222222222,152.46379223082567L246.66666666666669,152.47164810394978L248.3111111111111,152.50204734133217L249.95555555555555,152.4896478248682L251.6,152.49642732968934L253.24444444444444,152.53354575609134L254.8888888888889,152.51577916693938L256.53333333333336,152.4912842601401L258.1777777777778,152.5359441268904L259.8222222222222,152.50443339625863L261.46666666666664,152.52624400479064L263.1111111111111,152.5025736073186" style="fill: none;" fill="none"></path></g></g></g></g><g opacity="0.2"><g><g><g><path stroke="rgb(0, 119, 187)" stroke-width="2px" d="M36.17777777777778,-88.37569098039108L37.82222222222222,11.959032405506463L39.46666666666667,49.474672664295525L41.111111111111114,54.0268815647472L42.75555555555555,80.96374399011785L44.4,97.78051168268378L46.044444444444444,104.56560720096935L47.68888888888889,101.57106898047708L49.33333333333333,102.26478424939242L50.977777777777774,114.80086846785113L52.62222222222223,108.60385105826639L54.266666666666666,110.50194415179166L55.91111111111111,127.87019638581708L57.55555555555556,129.1050720648332L59.2,126.04291387037799L60.84444444444444,126.15644845095548L62.48888888888889,128.32340106097135L64.13333333333334,130.0957469289953L65.77777777777777,130.99973921342328L67.42222222222222,132.51553659005597L69.06666666666666,136.1756128397855L70.71111111111111,135.52193830230019L72.35555555555555,132.71514225006104L74,135.54642724990845L75.64444444444445,133.8699615435167L77.28888888888889,140.26835159821945L78.93333333333334,137.46274575320157L80.57777777777777,141.439513574947L82.22222222222223,142.02044465325096L83.86666666666666,142.3187237002633L85.5111111111111,141.77672609415922L87.15555555555555,142.50792035189542L88.8,141.97774958610535L90.44444444444446,142.77121463688937L92.08888888888889,141.6612933549014L93.73333333333333,143.57483792304993L95.37777777777778,143.0886373086409L97.02222222222223,143.052884795449L98.66666666666666,142.88157018748197L100.31111111111112,143.15809564156967L101.95555555555555,143.58311343193054L103.6,143.23978398062965L105.24444444444445,144.7803017876365L106.88888888888889,145.3234876719388L108.53333333333333,145.1423466205597L110.17777777777778,145.72782729972494L111.82222222222222,145.40163432468069L113.46666666666667,145.61724894697016L115.11111111111111,145.6174900748513L116.75555555555555,145.2807250889865L118.4,145.3076446056366L120.04444444444445,145.27831573919815L121.68888888888888,145.77157657796687L123.33333333333334,145.9380985281684L124.97777777777777,145.96168565750122L126.62222222222222,146.09580773657018L128.26666666666668,145.32905097441238L129.9111111111111,146.3730025616559L131.55555555555554,146.2788536982103L133.20000000000002,146.45904663476077L134.84444444444443,146.50492073189127L136.4888888888889,146.25509681484917L138.13333333333333,146.86138972369108L139.77777777777777,146.32989661260086L141.42222222222222,146.74593190713364L143.06666666666666,146.52227229421788L144.7111111111111,146.63362129168075L146.35555555555555,146.79677806117317L148,146.85696550932798L149.64444444444445,147.00636062838814L151.2888888888889,146.8032229271802L152.93333333333334,146.83621500838888L154.57777777777778,146.80819691311228L156.22222222222223,147.06218944896352L157.86666666666667,146.68015222115952L159.5111111111111,147.23483990539205L161.15555555555554,147.13422399217433L162.8,146.93957206335935L164.44444444444446,147.14159478924492L166.0888888888889,147.21127206628972L167.73333333333332,147.38249890370804L169.37777777777777,147.0178238478574L171.0222222222222,147.10566480593246L172.66666666666669,147.22736397656527L174.3111111111111,147.14918453043157L175.95555555555555,147.2314361442219L177.6,147.23203414136714L179.24444444444444,147.15979126366702L180.8888888888889,147.1501162485643L182.53333333333333,147.29803662950343L184.17777777777778,147.22696273977107L185.82222222222222,147.31765865195882L187.46666666666667,147.01295692270452L189.1111111111111,147.14175875620407L190.75555555555556,147.4241445823149L192.4,147.15436299280685L194.04444444444445,146.99673769690773L195.6888888888889,147.38407009298152L197.33333333333331,147.22274975343186L198.9777777777778,147.38806413520467L200.62222222222223,147.4545556306839L202.26666666666668,147.36083115230906L203.9111111111111,147.4481474161148L205.55555555555554,147.56882516904312L207.2,147.47609317302704L208.84444444444446,147.23373746871948L210.4888888888889,147.50324899500066L212.13333333333333,147.4394754929976L213.77777777777777,147.55883475867185L215.42222222222222,147.36790680885315L217.06666666666666,147.33702797239476L218.7111111111111,147.42757920785385L220.35555555555555,147.23982257192785L222,147.36506921594793L223.64444444444445,147.4305016777732L225.2888888888889,147.34216688979757L226.93333333333334,147.38960156657478L228.57777777777778,147.71143398501655L230.22222222222223,147.82597262209111L231.86666666666667,147.45411388440567L233.5111111111111,147.5438153852116L235.15555555555554,147.4146904403513L236.8,147.49014321240512L238.44444444444446,147.68337152220985L240.0888888888889,147.46569766781548L241.73333333333332,147.67919518730858L243.37777777777777,147.9341155832464L245.0222222222222,147.62472729249436L246.66666666666669,147.74527387185532L248.3111111111111,147.52489745616913L249.95555555555555,147.25765639001673L251.6,147.5145000219345L253.24444444444444,147.69484535130587L254.8888888888889,147.15159580924293L256.53333333333336,147.3325343132019L258.1777777777778,147.52565749125046L259.8222222222222,147.64497238939458L261.46666666666664,147.46865678917277" style="fill: none;" fill="none"></path></g><g><path stroke="rgb(255, 112, 67)" stroke-width="2px" d="M37.82222222222222,-73.20458828319204L39.46666666666667,4.357909982854665L41.111111111111114,33.776144201105296L42.75555555555555,54.741978125138715L44.4,71.66201799566096L46.044444444444444,83.07715849442916L47.68888888888889,87.23521397330545L49.33333333333333,61.84221813895486L50.977777777777774,96.14315691861239L52.62222222222223,100.76119951768355L54.266666666666666,70.62403384121983L55.91111111111111,116.45241698351774L57.55555555555556,122.4657489603216L59.2,124.74819989637896L60.84444444444444,124.52366161346436L62.48888888888889,125.87249240008268L64.13333333333334,128.22900624708697L65.77777777777777,129.10797717354515L67.42222222222222,130.1756123412739L69.06666666666666,131.56865247813138L70.71111111111111,133.61086867072365L72.35555555555555,131.0838002508337L74,134.39257053895432L75.64444444444445,135.70594202388418L77.28888888888889,136.5127790624445L78.93333333333334,137.03946215456182L80.57777777777777,140.84578728675842L82.22222222222223,141.97932173989037L83.86666666666666,142.9758376858451L85.5111111111111,143.06092110547152L87.15555555555555,143.40946663509715L88.8,143.48219659111717L90.44444444444446,144.11968276717445L92.08888888888889,144.3188833323392L93.73333333333333,144.68553081425753L95.37777777777778,144.75231937928635L97.02222222222223,145.15175253694707L98.66666666666666,145.01309243115512L100.31111111111112,145.40573156963694L101.95555555555555,145.9482037154111L103.6,146.0778793963519L105.24444444444445,147.18700302730906L106.88888888888889,147.89429765397853L108.53333333333333,147.85569018667394L110.17777777777778,148.16961553963748L111.82222222222222,148.44289541244507L113.46666666666667,148.34598032994705L115.11111111111111,148.71087722344834L116.75555555555555,148.8572032668374L118.4,148.99154139648783L120.04444444444445,148.9797126271508L121.68888888888888,149.01400872794065L123.33333333333334,149.23744360967117L124.97777777777777,149.31276520815763L126.62222222222222,149.40298079360616L128.26666666666668,149.39136711033908L129.9111111111111,150.1330099214207L131.55555555555554,150.23629753156143L133.20000000000002,150.36136284741488L134.84444444444443,150.4853025783192L136.4888888888889,150.52040211720902L138.13333333333333,150.4943043643778L139.77777777777777,150.70211898196828L141.42222222222222,150.74939740787852L143.06666666666666,150.81765395944768L144.7111111111111,150.814247304743L146.35555555555555,150.8904273184863L148,150.7086188251322L149.64444444444445,150.98975946686485L151.2888888888889,151.14285638115624L152.93333333333334,150.98813330043447L154.57777777777778,151.34817677194422L156.22222222222223,151.41908765922892L157.86666666666667,151.39190868897873L159.5111111111111,151.45886797254735L161.15555555555554,151.57058927145872L162.8,151.57396216826004L164.44444444444446,151.72275639664042L166.0888888888889,151.74438170953232L167.73333333333332,151.78521141138944L169.37777777777777,151.7885061827573L171.0222222222222,151.72870164567775L172.66666666666669,151.75563080744308L174.3111111111111,151.73843163793737L175.95555555555555,151.61872225457972L177.6,151.8209147344936L179.24444444444444,151.96222338893196L180.8888888888889,151.97358533469114L182.53333333333333,151.9774105873975L184.17777777777778,151.9567710052837L185.82222222222222,152.17274924841794L187.46666666666667,152.07049848816612L189.1111111111111,152.08620845187795L190.75555555555556,152.10930560935628L192.4,152.12335564873436L194.04444444444445,152.1937881383029L195.6888888888889,152.15470998937434L197.33333333333331,152.1251332434741L198.9777777777778,152.138134858825L200.62222222222223,152.27578897909683L202.26666666666668,152.18345339731735L203.9111111111111,152.3070989522067L205.55555555555554,152.24063542756167L207.2,152.3122504082593L208.84444444444446,152.31188196485692L210.4888888888889,152.33210680701515L212.13333333333333,152.2781202034517L213.77777777777777,152.2606943737377L215.42222222222222,152.35638838464564L217.06666666666666,152.33653391491282L218.7111111111111,152.28116034377706L220.35555555555555,152.34430305524307L222,152.36165751110423L223.64444444444445,152.47916009209374L225.2888888888889,152.41714682362297L226.93333333333334,152.42219121889633L228.57777777777778,152.45556331764567L230.22222222222223,152.4376658417962L231.86666666666667,152.35920282927427L233.5111111111111,152.38813045891848L235.15555555555554,152.4037256457589L236.8,152.4629186825319L238.44444444444446,152.40520520643753L240.0888888888889,152.46470495787534L241.73333333333332,152.4338270859285L243.37777777777777,152.41635592417282L245.0222222222222,152.5179758938876L246.66666666666669,152.48343191363594L248.3111111111111,152.54764619740573L249.95555555555555,152.47104855017227L251.6,152.506596586921L253.24444444444444,152.58922339569438L254.8888888888889,152.48912928321144L256.53333333333336,152.45454189994118L258.1777777777778,152.60293392701584L259.8222222222222,152.457167300311L261.46666666666664,152.55895991758865L263.1111111111111,152.46706801111048" style="fill: none;" fill="none"></path></g></g></g></g></g></g><g transform="translate(34, 178)" clip-path="url(#clip_1)"><clipPath id="clip_1"><rect width="296" height="22"></rect></clipPath><g><g><line x1="0" y1="0" x2="0" y2="5" style="visibility: inherit;" fill="rgb(0, 0, 0)" stroke="rgb(204, 204, 204)" stroke-width="1px"></line><line x1="32.888888888888886" y1="0" x2="32.888888888888886" y2="5" style="visibility: inherit;" fill="rgb(0, 0, 0)" stroke="rgb(204, 204, 204)" stroke-width="1px"></line><line x1="65.77777777777777" y1="0" x2="65.77777777777777" y2="5" style="visibility: inherit;" fill="rgb(0, 0, 0)" stroke="rgb(204, 204, 204)" stroke-width="1px"></line><line x1="98.66666666666666" y1="0" x2="98.66666666666666" y2="5" style="visibility: inherit;" fill="rgb(0, 0, 0)" stroke="rgb(204, 204, 204)" stroke-width="1px"></line><line x1="131.55555555555554" y1="0" x2="131.55555555555554" y2="5" style="visibility: inherit;" fill="rgb(0, 0, 0)" stroke="rgb(204, 204, 204)" stroke-width="1px"></line><line x1="164.44444444444446" y1="0" x2="164.44444444444446" y2="5" style="visibility: inherit;" fill="rgb(0, 0, 0)" stroke="rgb(204, 204, 204)" stroke-width="1px"></line><line x1="197.33333333333331" y1="0" x2="197.33333333333331" y2="5" style="visibility: inherit;" fill="rgb(0, 0, 0)" stroke="rgb(204, 204, 204)" stroke-width="1px"></line><line x1="230.22222222222223" y1="0" x2="230.22222222222223" y2="5" style="visibility: inherit;" fill="rgb(0, 0, 0)" stroke="rgb(204, 204, 204)" stroke-width="1px"></line><line x1="263.1111111111111" y1="0" x2="263.1111111111111" y2="5" style="visibility: inherit;" fill="rgb(0, 0, 0)" stroke="rgb(204, 204, 204)" stroke-width="1px"></line><line x1="296" y1="0" x2="296" y2="5" style="visibility: inherit;" fill="rgb(0, 0, 0)" stroke="rgb(204, 204, 204)" stroke-width="1px"></line></g><g transform="translate(0, 8)"><text x="0" y="0" dx="0em" dy="0.95em" style="text-anchor: middle; visibility: hidden; font-family: &quot;Helvetica Neue&quot;, sans-serif; font-size: 12px; font-weight: 200;" fill="rgb(50, 49, 63)" stroke="none" stroke-width="1px">-20</text><text x="32.888888888888886" y="0" dx="0em" dy="0.95em" style="text-anchor: middle; visibility: inherit; font-family: &quot;Helvetica Neue&quot;, sans-serif; font-size: 12px; font-weight: 200;" fill="rgb(50, 49, 63)" stroke="none" stroke-width="1px">0</text><text x="65.77777777777777" y="0" dx="0em" dy="0.95em" style="text-anchor: middle; visibility: inherit; font-family: &quot;Helvetica Neue&quot;, sans-serif; font-size: 12px; font-weight: 200;" fill="rgb(50, 49, 63)" stroke="none" stroke-width="1px">20</text><text x="98.66666666666666" y="0" dx="0em" dy="0.95em" style="text-anchor: middle; visibility: inherit; font-family: &quot;Helvetica Neue&quot;, sans-serif; font-size: 12px; font-weight: 200;" fill="rgb(50, 49, 63)" stroke="none" stroke-width="1px">40</text><text x="131.55555555555554" y="0" dx="0em" dy="0.95em" style="text-anchor: middle; visibility: inherit; font-family: &quot;Helvetica Neue&quot;, sans-serif; font-size: 12px; font-weight: 200;" fill="rgb(50, 49, 63)" stroke="none" stroke-width="1px">60</text><text x="164.44444444444446" y="0" dx="0em" dy="0.95em" style="text-anchor: middle; visibility: inherit; font-family: &quot;Helvetica Neue&quot;, sans-serif; font-size: 12px; font-weight: 200;" fill="rgb(50, 49, 63)" stroke="none" stroke-width="1px">80</text><text x="197.33333333333331" y="0" dx="0em" dy="0.95em" style="text-anchor: middle; visibility: inherit; font-family: &quot;Helvetica Neue&quot;, sans-serif; font-size: 12px; font-weight: 200;" fill="rgb(50, 49, 63)" stroke="none" stroke-width="1px">100</text><text x="230.22222222222223" y="0" dx="0em" dy="0.95em" style="text-anchor: middle; visibility: inherit; font-family: &quot;Helvetica Neue&quot;, sans-serif; font-size: 12px; font-weight: 200;" fill="rgb(50, 49, 63)" stroke="none" stroke-width="1px">120</text><text x="263.1111111111111" y="0" dx="0em" dy="0.95em" style="text-anchor: middle; visibility: inherit; font-family: &quot;Helvetica Neue&quot;, sans-serif; font-size: 12px; font-weight: 200;" fill="rgb(50, 49, 63)" stroke="none" stroke-width="1px">140</text><text x="296" y="0" dx="0em" dy="0.95em" style="text-anchor: middle; visibility: hidden; font-family: &quot;Helvetica Neue&quot;, sans-serif; font-size: 12px; font-weight: 200;" fill="rgb(50, 49, 63)" stroke="none" stroke-width="1px">160</text></g><line x1="0" y1="0" x2="296" y2="0" fill="rgb(0, 0, 0)" stroke="rgb(204, 204, 204)" stroke-width="1px"></line></g></g></g></g></svg>