<svg viewBox="0 0 330 200" xmlns="http://www.w3.org/2000/svg"><g><g><g><g><g><line x1="46" y1="178" x2="41" y2="178" style="visibility: inherit;" fill="rgb(0, 0, 0)" stroke="rgb(204, 204, 204)" stroke-width="1px"></line><line x1="46" y1="158.22222222222223" x2="41" y2="158.22222222222223" style="visibility: inherit;" fill="rgb(0, 0, 0)" stroke="rgb(204, 204, 204)" stroke-width="1px"></line><line x1="46" y1="138.44444444444446" x2="41" y2="138.44444444444446" style="visibility: inherit;" fill="rgb(0, 0, 0)" stroke="rgb(204, 204, 204)" stroke-width="1px"></line><line x1="46" y1="118.66666666666667" x2="41" y2="118.66666666666667" style="visibility: inherit;" fill="rgb(0, 0, 0)" stroke="rgb(204, 204, 204)" stroke-width="1px"></line><line x1="46" y1="98.8888888888889" x2="41" y2="98.8888888888889" style="visibility: inherit;" fill="rgb(0, 0, 0)" stroke="rgb(204, 204, 204)" stroke-width="1px"></line><line x1="46" y1="79.1111111111111" x2="41" y2="79.1111111111111" style="visibility: inherit;" fill="rgb(0, 0, 0)" stroke="rgb(204, 204, 204)" stroke-width="1px"></line><line x1="46" y1="59.33333333333334" x2="41" y2="59.33333333333334" style="visibility: inherit;" fill="rgb(0, 0, 0)" stroke="rgb(204, 204, 204)" stroke-width="1px"></line><line x1="46" y1="39.55555555555554" x2="41" y2="39.55555555555554" style="visibility: inherit;" fill="rgb(0, 0, 0)" stroke="rgb(204, 204, 204)" stroke-width="1px"></line><line x1="46" y1="19.7777777777778" x2="41" y2="19.7777777777778" style="visibility: inherit;" fill="rgb(0, 0, 0)" stroke="rgb(204, 204, 204)" stroke-width="1px"></line><line x1="46" y1="0" x2="41" y2="0" style="visibility: inherit;" fill="rgb(0, 0, 0)" stroke="rgb(204, 204, 204)" stroke-width="1px"></line></g><g transform="translate(36, 0)"><text x="0" y="178" dx="0em" dy="0.3em" style="text-anchor: end; visibility: hidden; font-family: &quot;Helvetica Neue&quot;, sans-serif; font-size: 12px; font-weight: 200;" fill="rgb(50, 49, 63)" stroke="none" stroke-width="1px">-10</text><text x="0" y="158.22222222222223" dx="0em" dy="0.3em" style="text-anchor: end; visibility: inherit; font-family: &quot;Helvetica Neue&quot;, sans-serif; font-size: 12px; font-weight: 200;" fill="rgb(50, 49, 63)" stroke="none" stroke-width="1px">0</text><text x="0" y="138.44444444444446" dx="0em" dy="0.3em" style="text-anchor: end; visibility: hidden; font-family: &quot;Helvetica Neue&quot;, sans-serif; font-size: 12px; font-weight: 200;" fill="rgb(50, 49, 63)" stroke="none" stroke-width="1px">10</text><text x="0" y="118.66666666666667" dx="0em" dy="0.3em" style="text-anchor: end; visibility: inherit; font-family: &quot;Helvetica Neue&quot;, sans-serif; font-size: 12px; font-weight: 200;" fill="rgb(50, 49, 63)" stroke="none" stroke-width="1px">20</text><text x="0" y="98.8888888888889" dx="0em" dy="0.3em" style="text-anchor: end; visibility: hidden; font-family: &quot;Helvetica Neue&quot;, sans-serif; font-size: 12px; font-weight: 200;" fill="rgb(50, 49, 63)" stroke="none" stroke-width="1px">30</text><text x="0" y="79.1111111111111" dx="0em" dy="0.3em" style="text-anchor: end; visibility: inherit; font-family: &quot;Helvetica Neue&quot;, sans-serif; font-size: 12px; font-weight: 200;" fill="rgb(50, 49, 63)" stroke="none" stroke-width="1px">40</text><text x="0" y="59.33333333333334" dx="0em" dy="0.3em" style="text-anchor: end; visibility: hidden; font-family: &quot;Helvetica Neue&quot;, sans-serif; font-size: 12px; font-weight: 200;" fill="rgb(50, 49, 63)" stroke="none" stroke-width="1px">50</text><text x="0" y="39.55555555555554" dx="0em" dy="0.3em" style="text-anchor: end; visibility: inherit; font-family: &quot;Helvetica Neue&quot;, sans-serif; font-size: 12px; font-weight: 200;" fill="rgb(50, 49, 63)" stroke="none" stroke-width="1px">60</text><text x="0" y="19.7777777777778" dx="0em" dy="0.3em" style="text-anchor: end; visibility: hidden; font-family: &quot;Helvetica Neue&quot;, sans-serif; font-size: 12px; font-weight: 200;" fill="rgb(50, 49, 63)" stroke="none" stroke-width="1px">70</text><text x="0" y="0" dx="0em" dy="0.3em" style="text-anchor: end; visibility: hidden; font-family: &quot;Helvetica Neue&quot;, sans-serif; font-size: 12px; font-weight: 200;" fill="rgb(50, 49, 63)" stroke="none" stroke-width="1px">80</text></g><line x1="46" y1="0" x2="46" y2="178" fill="rgb(0, 0, 0)" stroke="rgb(204, 204, 204)" stroke-width="1px"></line></g></g><g transform="translate(46, 0)" clip-path="url(#clip_0)"><clipPath id="clip_0"><rect width="284" height="178"></rect></clipPath><g><g><g><line x1="0" y1="0" x2="0" y2="178" fill="rgb(0, 0, 0)" stroke="rgb(60, 60, 60)" stroke-width="1px" opacity="0.25"></line><line x1="31.555555555555554" y1="0" x2="31.555555555555554" y2="178" fill="rgb(0, 0, 0)" stroke="rgb(60, 60, 60)" stroke-width="1px" opacity="0.25"></line><line x1="63.11111111111111" y1="0" x2="63.11111111111111" y2="178" fill="rgb(0, 0, 0)" stroke="rgb(60, 60, 60)" stroke-width="1px" opacity="0.25"></line><line x1="94.66666666666666" y1="0" x2="94.66666666666666" y2="178" fill="rgb(0, 0, 0)" stroke="rgb(60, 60, 60)" stroke-width="1px" opacity="0.25"></line><line x1="126.22222222222221" y1="0" x2="126.22222222222221" y2="178" fill="rgb(0, 0, 0)" stroke="rgb(60, 60, 60)" stroke-width="1px" opacity="0.25"></line><line x1="157.77777777777777" y1="0" x2="157.77777777777777" y2="178" fill="rgb(0, 0, 0)" stroke="rgb(60, 60, 60)" stroke-width="1px" opacity="0.25"></line><line x1="189.33333333333331" y1="0" x2="189.33333333333331" y2="178" fill="rgb(0, 0, 0)" stroke="rgb(60, 60, 60)" stroke-width="1px" opacity="0.25"></line><line x1="220.88888888888889" y1="0" x2="220.88888888888889" y2="178" fill="rgb(0, 0, 0)" stroke="rgb(60, 60, 60)" stroke-width="1px" opacity="0.25"></line><line x1="252.44444444444443" y1="0" x2="252.44444444444443" y2="178" fill="rgb(0, 0, 0)" stroke="rgb(60, 60, 60)" stroke-width="1px" opacity="0.25"></line><line x1="284" y1="0" x2="284" y2="178" fill="rgb(0, 0, 0)" stroke="rgb(60, 60, 60)" stroke-width="1px" opacity="0.25"></line></g><g><line x1="0" y1="178" x2="284" y2="178" fill="rgb(0, 0, 0)" stroke="rgb(60, 60, 60)" stroke-width="1px" opacity="0.25"></line><line x1="0" y1="158.22222222222223" x2="284" y2="158.22222222222223" fill="rgb(0, 0, 0)" stroke="rgb(60, 60, 60)" stroke-width="1px" opacity="0.25"></line><line x1="0" y1="138.44444444444446" x2="284" y2="138.44444444444446" fill="rgb(0, 0, 0)" stroke="rgb(60, 60, 60)" stroke-width="1px" opacity="0.25"></line><line x1="0" y1="118.66666666666667" x2="284" y2="118.66666666666667" fill="rgb(0, 0, 0)" stroke="rgb(60, 60, 60)" stroke-width="1px" opacity="0.25"></line><line x1="0" y1="98.8888888888889" x2="284" y2="98.8888888888889" fill="rgb(0, 0, 0)" stroke="rgb(60, 60, 60)" stroke-width="1px" opacity="0.25"></line><line x1="0" y1="79.1111111111111" x2="284" y2="79.1111111111111" fill="rgb(0, 0, 0)" stroke="rgb(60, 60, 60)" stroke-width="1px" opacity="0.25"></line><line x1="0" y1="59.33333333333334" x2="284" y2="59.33333333333334" fill="rgb(0, 0, 0)" stroke="rgb(60, 60, 60)" stroke-width="1px" opacity="0.25"></line><line x1="0" y1="39.55555555555554" x2="284" y2="39.55555555555554" fill="rgb(0, 0, 0)" stroke="rgb(60, 60, 60)" stroke-width="1px" opacity="0.25"></line><line x1="0" y1="19.7777777777778" x2="284" y2="19.7777777777778" fill="rgb(0, 0, 0)" stroke="rgb(60, 60, 60)" stroke-width="1px" opacity="0.25"></line><line x1="0" y1="0" x2="284" y2="0" fill="rgb(0, 0, 0)" stroke="rgb(60, 60, 60)" stroke-width="1px" opacity="0.25"></line></g></g></g><g><g><line x1="0" y1="158.22222222222223" x2="284" y2="158.22222222222223" fill="rgb(0, 0, 0)" stroke="rgb(153, 153, 153)" stroke-width="1.5px"></line></g></g><g><g><line x1="31.555555555555554" y1="0" x2="31.555555555555554" y2="178" fill="rgb(0, 0, 0)" stroke="rgb(153, 153, 153)" stroke-width="1.5px"></line></g></g><g><g><g><g><g><path stroke="rgb(0, 119, 187)" stroke-width="2px" d="M37.86666666666667,-34.79687419693991L39.44444444444444,10.72179251611766L41.02222222222222,44.4571214970517L42.6,66.53835202160417L44.17777777777778,83.4178951353105L45.75555555555556,91.34852106925364L47.33333333333333,95.96636592466797L48.91111111111111,103.24434009894081L50.488888888888894,106.66780219256492L52.06666666666666,110.00819032324277L53.644444444444446,116.65747230680235L55.22222222222222,121.89808245039661L56.800000000000004,124.71658852052963L58.37777777777777,126.42760542756787L59.955555555555556,127.89959021092201L61.53333333333334,129.17395160152182L63.11111111111111,130.2221494975099L64.68888888888888,131.08733311100747L66.26666666666667,132.2863628286109L67.84444444444445,133.53291767594877L69.42222222222222,133.73601706060438L71,134.61884343345167L72.57777777777777,134.75402877330168L74.15555555555557,135.8989769660427L75.73333333333333,136.66621120156233L77.3111111111111,138.3466638142434L78.88888888888889,139.43659665055384L80.46666666666667,140.2479371181501L82.04444444444444,140.5344632818189L83.62222222222222,141.00458852197613L85.2,141.1354807172289L86.77777777777779,141.5027268971244L88.35555555555555,141.6061457638197L89.93333333333332,141.9867510812261L91.51111111111112,141.93856345583856L93.08888888888889,142.11997385865777L94.66666666666666,142.2769246195469L96.24444444444445,142.43356116337117L97.82222222222222,142.46410072797943L99.39999999999999,142.4361336749013L100.97777777777779,143.12565959123614L102.55555555555556,143.6473888747558L104.13333333333333,143.8804892729077L105.71111111111111,144.10067183675983L107.28888888888889,144.3101096162053L108.86666666666667,144.4161807828466L110.44444444444444,144.57584503756627L112.02222222222221,144.59449906084276L113.60000000000001,144.5911458179686L115.17777777777778,144.59016937181684L116.75555555555555,144.73649656208897L118.33333333333334,144.83287639438637L119.91111111111111,144.84485146732845L121.48888888888888,144.893404813333L123.06666666666668,144.8563025713969L124.64444444444445,145.1748884535437L126.22222222222221,145.27654565910132L127.8,145.41310202721536L129.37777777777777,145.52811562696695L130.95555555555558,145.5460847862008L132.53333333333333,145.64015628435203L134.11111111111111,145.60306094132656L135.6888888888889,145.6636040920583L137.26666666666668,145.715300643915L138.84444444444443,145.70725779588133L140.42222222222222,145.750501146645L142,145.77584547338063L143.57777777777778,145.8453556286193L145.15555555555554,145.8443353872966L146.73333333333335,145.82021155511833L148.31111111111113,145.88962064305906L149.88888888888889,146.00979355486214L151.46666666666667,146.0524374334069L153.04444444444442,146.14310481437357L154.6222222222222,146.20021640340144L156.20000000000002,146.18468091998955L157.77777777777777,146.20622543906512L159.35555555555555,146.22292144440152L160.93333333333334,146.2642084940823L162.5111111111111,146.23129113767524L164.08888888888887,146.1845554917957L165.66666666666669,146.17399235625498L167.24444444444444,146.20416139902994L168.82222222222222,146.24867843765745L170.4,146.2466217659636L171.97777777777776,146.27255746102674L173.55555555555557,146.27917548139035L175.13333333333335,146.30278155344874L176.7111111111111,146.30977742714575L178.2888888888889,146.363919227114L179.86666666666665,146.34339125574405L181.44444444444443,146.3361897276421L183.02222222222224,146.3922850239225L184.6,146.38027195514263L186.17777777777778,146.32678199836226L187.75555555555556,146.37300951511165L189.33333333333331,146.35909215892323L190.91111111111113,146.36712414063658L192.4888888888889,146.37030803252514L194.06666666666666,146.39254622393403L195.64444444444445,146.40642254365946L197.22222222222223,146.46326252786398L198.79999999999998,146.4859948846451L200.3777777777778,146.42685056153113L201.95555555555558,146.4587276473367L203.53333333333333,146.48439320122213L205.11111111111111,146.48928890874325L206.68888888888887,146.47647240496548L208.26666666666665,146.50573569127707L209.84444444444446,146.50528955082038L211.42222222222222,146.49299649118018L213,146.45574545533634L214.57777777777778,146.47809106948682L216.15555555555554,146.50168330244512L217.73333333333335,146.52872146404493L219.31111111111113,146.56272967916752L220.88888888888889,146.60072678404268L222.46666666666667,146.61529348551892L224.04444444444442,146.5881120450874L225.6222222222222,146.60183568628773L227.20000000000002,146.5214367660478L228.77777777777777,146.5655624668688L230.35555555555555,146.57067339981938L231.93333333333334,146.59381016697358L233.5111111111111,146.6419625477346L235.08888888888887,146.61920536999685L236.66666666666669,146.61087266352644L238.24444444444444,146.5637906387924L239.82222222222222,146.54626686069244L241.4,146.5515751781966L242.97777777777776,146.58055561361147L244.55555555555557,146.53966429908866L246.13333333333335,146.4980586680559L247.7111111111111,146.48738933308317L249.2888888888889,146.50198781432744L250.86666666666665,146.52466861955213" style="fill: none;" fill="none"></path></g><g><path stroke="rgb(255, 112, 67)" stroke-width="2px" d="M41.02222222222222,-33.37113555221043L42.6,10.644221719796889L44.17777777777778,40.968872055555096L45.75555555555556,60.641036772729876L47.33333333333333,62.392061937058855L48.91111111111111,76.11227843097673L50.488888888888894,85.94304054457326L52.06666666666666,80.54479326091598L53.644444444444446,94.39166515293981L55.22222222222222,104.64604682189992L56.800000000000004,112.03517127841468L58.37777777777777,116.54200602067635L59.955555555555556,119.39429964056157L61.53333333333334,122.12252797222185L63.11111111111111,124.32023698465586L64.68888888888888,125.98225977313649L66.26666666666667,127.43365766516173L67.84444444444445,128.94812469798956L69.42222222222222,129.3349085654583L71,130.64441940031003L72.57777777777777,131.74196822202632L74.15555555555557,132.83127091862434L75.73333333333333,133.82462586104396L77.3111111111111,135.7999220646952L78.88888888888889,137.3814042966414L80.46666666666667,138.56289275305664L82.04444444444444,139.40848227933006L83.62222222222222,140.01630923195037L85.2,140.44158645658302L86.77777777777779,140.944602724136L88.35555555555555,141.30259804721956L89.93333333333332,141.62045253339653L91.51111111111112,141.9119281979334L93.08888888888889,142.1961861168329L94.66666666666666,142.4076387629275L96.24444444444445,142.61714434811475L97.82222222222222,142.91184349287184L99.39999999999999,143.08674475915132L100.97777777777779,143.69272094646902L102.55555555555556,144.29735700181806L104.13333333333333,144.67039328723897L105.71111111111111,144.9772198743278L107.28888888888889,145.2498342532611L108.86666666666667,145.3914367093539L110.44444444444444,145.5961366388878L112.02222222222221,145.7651119624456L113.60000000000001,145.88644325490762L115.17777777777778,145.9854716683784L116.75555555555555,146.08360696970252L118.33333333333334,146.16465387705267L119.91111111111111,146.25548513629022L121.48888888888888,146.3504385401685L123.06666666666668,146.42221275653384L124.64444444444445,146.72888077230817L126.22222222222221,146.96315668926246L127.8,147.1396335155106L129.37777777777777,147.26504358790336L130.95555555555558,147.352414218504L132.53333333333333,147.42153586647703L134.11111111111111,147.52621356124092L135.6888888888889,147.60404378683677L137.26666666666668,147.66612012823543L138.84444444444443,147.72566255884772L140.42222222222222,147.77272796353807L142,147.77801419833634L143.57777777777778,147.8234422436383L145.15555555555554,147.88782540850664L146.73333333333335,147.91153468280066L148.31111111111113,148.05306671506912L149.88888888888889,148.1627824711937L151.46666666666667,148.2262451764825L153.04444444444442,148.27348876272274L154.6222222222222,148.13364186874475L156.20000000000002,148.27245818490653L157.77777777777777,148.37684010123797L159.35555555555555,148.46033503896678L160.93333333333334,148.5158909139237L162.5111111111111,148.53518842137396L164.08888888888887,148.5584482663796L165.66666666666669,148.57113479048232L167.24444444444444,148.58779874419636L168.82222222222222,148.5724011593257L170.4,148.61379457658364L171.97777777777776,148.6718978897151L173.55555555555557,148.71375110294255L175.13333333333335,148.7266882719679L176.7111111111111,148.76812600029012L178.2888888888889,148.80513133154477L179.86666666666665,148.83144974517523L181.44444444444443,148.85870258534572L183.02222222222224,148.8677986250464L184.6,148.8709513663934L186.17777777777778,148.89830498375613L187.75555555555556,148.9017871784522L189.33333333333331,148.9084130773689L190.91111111111113,148.92605004368696L192.4888888888889,148.94526666782053L194.06666666666666,148.94341248024554L195.64444444444445,148.96511302295093L197.22222222222223,148.98639018451166L198.79999999999998,149.02875290767014L200.3777777777778,149.0526699159549L201.95555555555558,149.06210517595912L203.53333333333333,149.06967021769705L205.11111111111111,149.07337593907636L206.68888888888887,149.08616109031485L208.26666666666665,149.0895611697054L209.84444444444446,149.096582554993L211.42222222222222,149.10650704337178L213,149.12588513049627L214.57777777777778,149.15771723891515L216.15555555555554,149.1467323178364L217.73333333333335,149.15883467878777L219.31111111111113,149.17253844934896L220.88888888888889,149.1744088931771L222.46666666666667,149.17710987193732L224.04444444444442,149.17934685493188L225.6222222222222,149.1805962458598L227.20000000000002,149.19506313759834L228.77777777777777,149.19138517937975L230.35555555555555,149.20526391894106L231.93333333333334,149.2097622662613L233.5111111111111,149.21301995402217L235.08888888888887,149.22090916750878L236.66666666666669,149.22934144726227L238.24444444444444,149.24604745038184L239.82222222222222,149.2396498020162L241.4,149.2435742533275L242.97777777777776,149.250148254796L244.55555555555557,149.2439330656977L246.13333333333335,149.2361083533821L247.7111111111111,149.26233478809806L249.2888888888889,149.25563482485128L250.86666666666665,149.26432791469972L252.44444444444443,149.25181956189627" style="fill: none;" fill="none"></path></g></g></g></g><g opacity="0.2"><g><g><g><path stroke="rgb(0, 119, 187)" stroke-width="2px" d="M34.71111111111111,-23.415086025661907L36.288888888888884,35.290685526529955L37.86666666666667,65.77103229098849L39.44444444444444,73.69049530029297L41.02222222222222,92.69918170505099L42.6,98.73299810621474L44.17777777777778,108.31194254557292L45.75555555555556,103.12457631429037L47.33333333333333,102.85124969482422L48.91111111111111,114.12169494628907L50.488888888888894,111.79181713528102L52.06666666666666,115.01222835116917L53.644444444444446,126.62357930077447L55.22222222222222,129.7553015814887L56.800000000000004,128.94315492841932L58.37777777777777,128.99369636111788L59.955555555555556,130.107343143887L61.53333333333334,131.08537720574273L63.11111111111111,131.79438885582817L64.68888888888888,132.38508006201852L66.26666666666667,134.0848837322659L67.84444444444445,135.40273518032498L69.42222222222222,134.04066469404432L71,135.94307922787135L72.57777777777777,134.95680643717446L74.15555555555557,137.61639749738904L75.73333333333333,137.81706184811063L77.3111111111111,140.8673418045044L78.88888888888889,141.07149554358588L80.46666666666667,141.46494765811497L82.04444444444444,140.9642524931166L83.62222222222222,141.70977634853787L85.2,141.3318190044827L86.77777777777779,142.05359615749782L88.35555555555555,141.76127406226266L89.93333333333332,142.5576590538025L91.51111111111112,141.86628201802571L93.08888888888889,142.39208946228027L94.66666666666666,142.51235076056588L96.24444444444445,142.66851597891912L97.82222222222222,142.5099100748698L99.39999999999999,142.39418309529623L100.97777777777779,144.1599484655592L102.55555555555556,144.42998279995388L104.13333333333333,144.2301398701138L105.71111111111111,144.43094568252565L107.28888888888889,144.62426628536647L108.86666666666667,144.57528753280639L110.44444444444444,144.81534141964383L112.02222222222221,144.6224800957574L113.60000000000001,144.58611595365736L115.17777777777778,144.58870470258924L116.75555555555555,144.9559873474969L118.33333333333334,144.97744614283243L119.91111111111111,144.86281407674153L121.48888888888888,144.9662348323398L123.06666666666668,144.8006492084927L124.64444444444445,145.6527672767639L126.22222222222221,145.42903146743774L127.8,145.6179365793864L129.37777777777777,145.70063602659437L130.95555555555558,145.57303852505154L132.53333333333333,145.78126353157893L134.11111111111111,145.54741792678834L135.6888888888889,145.75441881815593L137.26666666666668,145.79284547170005L138.84444444444443,145.69519352383082L140.42222222222222,145.81536617279053L142,145.81386196348402L143.57777777777778,145.9496208614773L145.15555555555554,145.84280502531263L146.73333333333335,145.78402580685085L148.31111111111113,145.99373427497017L149.88888888888889,146.19005292256674L151.46666666666667,146.11640325122409L153.04444444444442,146.27910588582358L154.6222222222222,146.28588378694323L156.20000000000002,146.1613776948717L157.77777777777777,146.23854221767849L159.35555555555555,146.24796545240613L160.93333333333334,146.3261390686035L162.5111111111111,146.18191510306463L164.08888888888887,146.11445202297634L165.66666666666669,146.15814765294394L167.24444444444444,146.2494149631924L168.82222222222222,146.3154539955987L170.4,146.24353675842286L171.97777777777776,146.31146100362142L173.55555555555557,146.28910251193577L175.13333333333335,146.33819066153632L176.7111111111111,146.32027123769126L178.2888888888889,146.44513192706637L179.86666666666665,146.3125992986891L181.44444444444443,146.32538743548923L183.02222222222224,146.4764279683431L184.6,146.36225235197278L186.17777777777778,146.24654706319174L187.75555555555556,146.44235079023574L189.33333333333331,146.33821612464055L190.91111111111113,146.37917211320666L192.4888888888889,146.37508387035794L194.06666666666666,146.42590351104735L195.64444444444445,146.4272370232476L197.22222222222223,146.54852250417073L198.79999999999998,146.52009341981676L200.3777777777778,146.33813407686023L201.95555555555558,146.50654327604505L203.53333333333333,146.52289153205024L205.11111111111111,146.49663247002496L206.68888888888887,146.45724764929878L208.26666666666665,146.5496306207445L209.84444444444446,146.50462034013538L211.42222222222222,146.47455690171984L213,146.39986890157064L214.57777777777778,146.5116094907125L216.15555555555554,146.5370716518826L217.73333333333335,146.56927870644463L219.31111111111113,146.6137420018514L220.88888888888889,146.6577224413554L222.46666666666667,146.6371435377333L224.04444444444442,146.5473398844401L225.6222222222222,146.62242114808825L227.20000000000002,146.40083838568793L228.77777777777777,146.63175101810032L230.35555555555555,146.5783397992452L231.93333333333334,146.62851531770494L233.5111111111111,146.71419111887613L235.08888888888887,146.58506960339017L236.66666666666669,146.5983736038208L238.24444444444444,146.49316760169137L239.82222222222222,146.5199811935425L241.4,146.55953765445287L242.97777777777776,146.6240262667338L244.55555555555557,146.4783273273044L246.13333333333335,146.43565022150676L247.7111111111111,146.47138533062406L249.2888888888889,146.52388553619386L250.86666666666665,146.55868982738917" style="fill: none;" fill="none"></path></g><g><path stroke="rgb(255, 112, 67)" stroke-width="2px" d="M36.288888888888884,-37.37328830295138L37.86666666666667,17.232206726074224L39.44444444444444,44.646237436930335L41.02222222222222,64.30868055555555L42.6,74.81903516981338L44.17777777777778,85.69184104071724L45.75555555555556,89.85190870496962L47.33333333333333,65.0027180141873L48.91111111111111,96.61793835957845L50.488888888888894,100.65708457099066L52.06666666666666,72.45799806382921L53.644444444444446,115.14569651285808L55.22222222222222,120.02038714090983L56.800000000000004,123.11573113335504L58.37777777777777,123.30111384921604L59.955555555555556,123.67230555216472L61.53333333333334,126.21462109883626L63.11111111111111,127.61667997572158L64.68888888888888,128.4752392662896L66.26666666666667,129.61072584788005L67.84444444444445,131.21980730692547L69.42222222222222,129.91508161756727L71,132.60868006812203L72.57777777777777,133.38828864627413L74.15555555555557,134.46522329118517L75.73333333333333,135.31465735965304L77.3111111111111,138.76286527845593L78.88888888888889,139.75362712012395L80.46666666666667,140.3351252026028L82.04444444444444,140.6768664677938L83.62222222222222,140.92804961734348L85.2,141.07950227525498L86.77777777777779,141.69912711249458L88.35555555555555,141.83959102630615L89.93333333333332,142.09723425971137L91.51111111111112,142.34914169311523L93.08888888888889,142.62257299423217L94.66666666666666,142.72481773164537L96.24444444444445,142.93140272564358L97.82222222222222,143.3538922097948L99.39999999999999,143.34909665849474L100.97777777777779,144.60168522728816L102.55555555555556,145.2043110847473L104.13333333333333,145.2299477153354L105.71111111111111,145.43745975494386L107.28888888888889,145.65875582165188L108.86666666666667,145.60384039349026L110.44444444444444,145.90318653318616L112.02222222222221,146.01857494778102L113.60000000000001,146.0684401936001L115.17777777777778,146.13401428858438L116.75555555555555,146.2308099216885L118.33333333333334,146.2862242380778L119.91111111111111,146.3917320251465L121.48888888888888,146.49286864598594L123.06666666666668,146.5298740810818L124.64444444444445,147.18888279596965L126.22222222222221,147.31457056469387L127.8,147.40434875488282L129.37777777777777,147.45315869649252L130.95555555555558,147.483470164405L132.53333333333333,147.52521833843656L134.11111111111111,147.6832301033868L135.6888888888889,147.72078912523057L137.26666666666668,147.75923464033337L138.84444444444443,147.81497620476617L140.42222222222222,147.8433260705736L142,147.78594355053372L143.57777777777778,147.89158431159126L145.15555555555554,147.9844001558092L146.73333333333335,147.94709859424168L148.31111111111113,148.2653647634718L149.88888888888889,148.3273561053806L151.46666666666667,148.3214392344157L153.04444444444442,148.34435414208306L154.6222222222222,147.92387152777778L156.20000000000002,148.48068265914918L157.77777777777777,148.53341297573513L159.35555555555555,148.58557744556003L160.93333333333334,148.59922472635904L162.5111111111111,148.56413468254937L164.08888888888887,148.59333803388807L165.66666666666669,148.59016457663643L167.24444444444444,148.61279467476737L168.82222222222222,148.5493047820197L170.4,148.67588470247057L171.97777777777776,148.7590528594123L173.55555555555557,148.77653092278376L175.13333333333335,148.7460940255059L176.7111111111111,148.83028259277344L178.2888888888889,148.86063932842677L179.86666666666665,148.87092736562093L181.44444444444443,148.8995818456014L183.02222222222224,148.88144268459743L184.6,148.8756804784139L186.17777777777778,148.9393354098002L187.75555555555556,148.9070104704963L189.33333333333331,148.91835192574393L190.91111111111113,148.95250549316407L192.4888888888889,148.97409160402086L194.06666666666666,148.94063119888307L195.64444444444445,148.99766383700901L197.22222222222223,149.01830592685275L198.79999999999998,149.0922969924079L200.3777777777778,149.08854542838202L201.95555555555558,149.07625806596545L203.53333333333333,149.08101778030397L205.11111111111111,149.0789345211453L206.68888888888887,149.1053388171726L208.26666666666665,149.09466128879123L209.84444444444446,149.1071146329244L211.42222222222222,149.12139377593994L213,149.15495226118298L214.57777777777778,149.2054654015435L216.15555555555554,149.13025493621825L217.73333333333335,149.17698822021484L219.31111111111113,149.1930941051907L220.88888888888889,149.17721455891927L222.46666666666667,149.18116134007772L224.04444444444442,149.1827023294237L225.6222222222222,149.18247033225165L227.20000000000002,149.21676347520616L228.77777777777777,149.18586824205187L230.35555555555555,149.22608202828303L231.93333333333334,149.21650978724162L233.5111111111111,149.21790648566352L235.08888888888887,149.23274298773873L236.66666666666669,149.24198986689248L238.24444444444444,149.27110645506116L239.82222222222222,149.23005332946778L241.4,149.24946093029445L242.97777777777776,149.2600092569987L244.55555555555557,149.23461028205026L246.13333333333335,149.22437128490873L247.7111111111111,149.30167444017198L249.2888888888889,149.24558487998115L250.86666666666665,149.2773675494724L252.44444444444443,149.2330570326911" style="fill: none;" fill="none"></path></g></g></g></g></g></g><g transform="translate(46, 178)" clip-path="url(#clip_1)"><clipPath id="clip_1"><rect width="284" height="22"></rect></clipPath><g><g><line x1="0" y1="0" x2="0" y2="5" style="visibility: inherit;" fill="rgb(0, 0, 0)" stroke="rgb(204, 204, 204)" stroke-width="1px"></line><line x1="31.555555555555554" y1="0" x2="31.555555555555554" y2="5" style="visibility: inherit;" fill="rgb(0, 0, 0)" stroke="rgb(204, 204, 204)" stroke-width="1px"></line><line x1="63.11111111111111" y1="0" x2="63.11111111111111" y2="5" style="visibility: inherit;" fill="rgb(0, 0, 0)" stroke="rgb(204, 204, 204)" stroke-width="1px"></line><line x1="94.66666666666666" y1="0" x2="94.66666666666666" y2="5" style="visibility: inherit;" fill="rgb(0, 0, 0)" stroke="rgb(204, 204, 204)" stroke-width="1px"></line><line x1="126.22222222222221" y1="0" x2="126.22222222222221" y2="5" style="visibility: inherit;" fill="rgb(0, 0, 0)" stroke="rgb(204, 204, 204)" stroke-width="1px"></line><line x1="157.77777777777777" y1="0" x2="157.77777777777777" y2="5" style="visibility: inherit;" fill="rgb(0, 0, 0)" stroke="rgb(204, 204, 204)" stroke-width="1px"></line><line x1="189.33333333333331" y1="0" x2="189.33333333333331" y2="5" style="visibility: inherit;" fill="rgb(0, 0, 0)" stroke="rgb(204, 204, 204)" stroke-width="1px"></line><line x1="220.88888888888889" y1="0" x2="220.88888888888889" y2="5" style="visibility: inherit;" fill="rgb(0, 0, 0)" stroke="rgb(204, 204, 204)" stroke-width="1px"></line><line x1="252.44444444444443" y1="0" x2="252.44444444444443" y2="5" style="visibility: inherit;" fill="rgb(0, 0, 0)" stroke="rgb(204, 204, 204)" stroke-width="1px"></line><line x1="284" y1="0" x2="284" y2="5" style="visibility: inherit;" fill="rgb(0, 0, 0)" stroke="rgb(204, 204, 204)" stroke-width="1px"></line></g><g transform="translate(0, 8)"><text x="0" y="0" dx="0em" dy="0.95em" style="text-anchor: middle; visibility: hidden; font-family: &quot;Helvetica Neue&quot;, sans-serif; font-size: 12px; font-weight: 200;" fill="rgb(50, 49, 63)" stroke="none" stroke-width="1px">-20</text><text x="31.555555555555554" y="0" dx="0em" dy="0.95em" style="text-anchor: middle; visibility: inherit; font-family: &quot;Helvetica Neue&quot;, sans-serif; font-size: 12px; font-weight: 200;" fill="rgb(50, 49, 63)" stroke="none" stroke-width="1px">0</text><text x="63.11111111111111" y="0" dx="0em" dy="0.95em" style="text-anchor: middle; visibility: inherit; font-family: &quot;Helvetica Neue&quot;, sans-serif; font-size: 12px; font-weight: 200;" fill="rgb(50, 49, 63)" stroke="none" stroke-width="1px">20</text><text x="94.66666666666666" y="0" dx="0em" dy="0.95em" style="text-anchor: middle; visibility: inherit; font-family: &quot;Helvetica Neue&quot;, sans-serif; font-size: 12px; font-weight: 200;" fill="rgb(50, 49, 63)" stroke="none" stroke-width="1px">40</text><text x="126.22222222222221" y="0" dx="0em" dy="0.95em" style="text-anchor: middle; visibility: inherit; font-family: &quot;Helvetica Neue&quot;, sans-serif; font-size: 12px; font-weight: 200;" fill="rgb(50, 49, 63)" stroke="none" stroke-width="1px">60</text><text x="157.77777777777777" y="0" dx="0em" dy="0.95em" style="text-anchor: middle; visibility: inherit; font-family: &quot;Helvetica Neue&quot;, sans-serif; font-size: 12px; font-weight: 200;" fill="rgb(50, 49, 63)" stroke="none" stroke-width="1px">80</text><text x="189.33333333333331" y="0" dx="0em" dy="0.95em" style="text-anchor: middle; visibility: inherit; font-family: &quot;Helvetica Neue&quot;, sans-serif; font-size: 12px; font-weight: 200;" fill="rgb(50, 49, 63)" stroke="none" stroke-width="1px">100</text><text x="220.88888888888889" y="0" dx="0em" dy="0.95em" style="text-anchor: middle; visibility: inherit; font-family: &quot;Helvetica Neue&quot;, sans-serif; font-size: 12px; font-weight: 200;" fill="rgb(50, 49, 63)" stroke="none" stroke-width="1px">120</text><text x="252.44444444444443" y="0" dx="0em" dy="0.95em" style="text-anchor: middle; visibility: inherit; font-family: &quot;Helvetica Neue&quot;, sans-serif; font-size: 12px; font-weight: 200;" fill="rgb(50, 49, 63)" stroke="none" stroke-width="1px">140</text><text x="284" y="0" dx="0em" dy="0.95em" style="text-anchor: middle; visibility: hidden; font-family: &quot;Helvetica Neue&quot;, sans-serif; font-size: 12px; font-weight: 200;" fill="rgb(50, 49, 63)" stroke="none" stroke-width="1px">160</text></g><line x1="0" y1="0" x2="284" y2="0" fill="rgb(0, 0, 0)" stroke="rgb(204, 204, 204)" stroke-width="1px"></line></g></g></g></g></svg>