<svg viewBox="0 0 330 200" xmlns="http://www.w3.org/2000/svg"><g><g><g><g><g><line x1="70" y1="178" x2="65" y2="178" style="visibility: inherit;" fill="rgb(0, 0, 0)" stroke="rgb(204, 204, 204)" stroke-width="1px"></line><line x1="70" y1="155.75" x2="65" y2="155.75" style="visibility: inherit;" fill="rgb(0, 0, 0)" stroke="rgb(204, 204, 204)" stroke-width="1px"></line><line x1="70" y1="133.5" x2="65" y2="133.5" style="visibility: inherit;" fill="rgb(0, 0, 0)" stroke="rgb(204, 204, 204)" stroke-width="1px"></line><line x1="70" y1="111.25" x2="65" y2="111.25" style="visibility: inherit;" fill="rgb(0, 0, 0)" stroke="rgb(204, 204, 204)" stroke-width="1px"></line><line x1="70" y1="89.00000000000001" x2="65" y2="89.00000000000001" style="visibility: inherit;" fill="rgb(0, 0, 0)" stroke="rgb(204, 204, 204)" stroke-width="1px"></line><line x1="70" y1="66.75" x2="65" y2="66.75" style="visibility: inherit;" fill="rgb(0, 0, 0)" stroke="rgb(204, 204, 204)" stroke-width="1px"></line><line x1="70" y1="44.5" x2="65" y2="44.5" style="visibility: inherit;" fill="rgb(0, 0, 0)" stroke="rgb(204, 204, 204)" stroke-width="1px"></line><line x1="70" y1="22.25" x2="65" y2="22.25" style="visibility: inherit;" fill="rgb(0, 0, 0)" stroke="rgb(204, 204, 204)" stroke-width="1px"></line><line x1="70" y1="0" x2="65" y2="0" style="visibility: inherit;" fill="rgb(0, 0, 0)" stroke="rgb(204, 204, 204)" stroke-width="1px"></line></g><g transform="translate(60, 0)"><text x="0" y="178" dx="0em" dy="0.3em" style="text-anchor: end; visibility: hidden; font-family: &quot;Helvetica Neue&quot;, sans-serif; font-size: 12px; font-weight: 200;" fill="rgb(50, 49, 63)" stroke="none" stroke-width="1px">-1e-4</text><text x="0" y="155.75" dx="0em" dy="0.3em" style="text-anchor: end; visibility: inherit; font-family: &quot;Helvetica Neue&quot;, sans-serif; font-size: 12px; font-weight: 200;" fill="rgb(50, 49, 63)" stroke="none" stroke-width="1px">0</text><text x="0" y="133.5" dx="0em" dy="0.3em" style="text-anchor: end; visibility: hidden; font-family: &quot;Helvetica Neue&quot;, sans-serif; font-size: 12px; font-weight: 200;" fill="rgb(50, 49, 63)" stroke="none" stroke-width="1px">1e-4</text><text x="0" y="111.25" dx="0em" dy="0.3em" style="text-anchor: end; visibility: inherit; font-family: &quot;Helvetica Neue&quot;, sans-serif; font-size: 12px; font-weight: 200;" fill="rgb(50, 49, 63)" stroke="none" stroke-width="1px">2e-4</text><text x="0" y="89.00000000000001" dx="0em" dy="0.3em" style="text-anchor: end; visibility: hidden; font-family: &quot;Helvetica Neue&quot;, sans-serif; font-size: 12px; font-weight: 200;" fill="rgb(50, 49, 63)" stroke="none" stroke-width="1px">3e-4</text><text x="0" y="66.75" dx="0em" dy="0.3em" style="text-anchor: end; visibility: inherit; font-family: &quot;Helvetica Neue&quot;, sans-serif; font-size: 12px; font-weight: 200;" fill="rgb(50, 49, 63)" stroke="none" stroke-width="1px">4e-4</text><text x="0" y="44.5" dx="0em" dy="0.3em" style="text-anchor: end; visibility: hidden; font-family: &quot;Helvetica Neue&quot;, sans-serif; font-size: 12px; font-weight: 200;" fill="rgb(50, 49, 63)" stroke="none" stroke-width="1px">5e-4</text><text x="0" y="22.25" dx="0em" dy="0.3em" style="text-anchor: end; visibility: inherit; font-family: &quot;Helvetica Neue&quot;, sans-serif; font-size: 12px; font-weight: 200;" fill="rgb(50, 49, 63)" stroke="none" stroke-width="1px">6e-4</text><text x="0" y="0" dx="0em" dy="0.3em" style="text-anchor: end; visibility: hidden; font-family: &quot;Helvetica Neue&quot;, sans-serif; font-size: 12px; font-weight: 200;" fill="rgb(50, 49, 63)" stroke="none" stroke-width="1px">7e-4</text></g><line x1="70" y1="0" x2="70" y2="178" fill="rgb(0, 0, 0)" stroke="rgb(204, 204, 204)" stroke-width="1px"></line></g></g><g transform="translate(70, 0)" clip-path="url(#clip_0)"><clipPath id="clip_0"><rect width="260" height="178"></rect></clipPath><g><g><g><line x1="0" y1="0" x2="0" y2="178" fill="rgb(0, 0, 0)" stroke="rgb(60, 60, 60)" stroke-width="1px" opacity="0.25"></line><line x1="28.888888888888886" y1="0" x2="28.888888888888886" y2="178" fill="rgb(0, 0, 0)" stroke="rgb(60, 60, 60)" stroke-width="1px" opacity="0.25"></line><line x1="57.77777777777777" y1="0" x2="57.77777777777777" y2="178" fill="rgb(0, 0, 0)" stroke="rgb(60, 60, 60)" stroke-width="1px" opacity="0.25"></line><line x1="86.66666666666666" y1="0" x2="86.66666666666666" y2="178" fill="rgb(0, 0, 0)" stroke="rgb(60, 60, 60)" stroke-width="1px" opacity="0.25"></line><line x1="115.55555555555554" y1="0" x2="115.55555555555554" y2="178" fill="rgb(0, 0, 0)" stroke="rgb(60, 60, 60)" stroke-width="1px" opacity="0.25"></line><line x1="144.44444444444446" y1="0" x2="144.44444444444446" y2="178" fill="rgb(0, 0, 0)" stroke="rgb(60, 60, 60)" stroke-width="1px" opacity="0.25"></line><line x1="173.33333333333331" y1="0" x2="173.33333333333331" y2="178" fill="rgb(0, 0, 0)" stroke="rgb(60, 60, 60)" stroke-width="1px" opacity="0.25"></line><line x1="202.22222222222223" y1="0" x2="202.22222222222223" y2="178" fill="rgb(0, 0, 0)" stroke="rgb(60, 60, 60)" stroke-width="1px" opacity="0.25"></line><line x1="231.1111111111111" y1="0" x2="231.1111111111111" y2="178" fill="rgb(0, 0, 0)" stroke="rgb(60, 60, 60)" stroke-width="1px" opacity="0.25"></line><line x1="260" y1="0" x2="260" y2="178" fill="rgb(0, 0, 0)" stroke="rgb(60, 60, 60)" stroke-width="1px" opacity="0.25"></line></g><g><line x1="0" y1="178" x2="260" y2="178" fill="rgb(0, 0, 0)" stroke="rgb(60, 60, 60)" stroke-width="1px" opacity="0.25"></line><line x1="0" y1="155.75" x2="260" y2="155.75" fill="rgb(0, 0, 0)" stroke="rgb(60, 60, 60)" stroke-width="1px" opacity="0.25"></line><line x1="0" y1="133.5" x2="260" y2="133.5" fill="rgb(0, 0, 0)" stroke="rgb(60, 60, 60)" stroke-width="1px" opacity="0.25"></line><line x1="0" y1="111.25" x2="260" y2="111.25" fill="rgb(0, 0, 0)" stroke="rgb(60, 60, 60)" stroke-width="1px" opacity="0.25"></line><line x1="0" y1="89.00000000000001" x2="260" y2="89.00000000000001" fill="rgb(0, 0, 0)" stroke="rgb(60, 60, 60)" stroke-width="1px" opacity="0.25"></line><line x1="0" y1="66.75" x2="260" y2="66.75" fill="rgb(0, 0, 0)" stroke="rgb(60, 60, 60)" stroke-width="1px" opacity="0.25"></line><line x1="0" y1="44.5" x2="260" y2="44.5" fill="rgb(0, 0, 0)" stroke="rgb(60, 60, 60)" stroke-width="1px" opacity="0.25"></line><line x1="0" y1="22.25" x2="260" y2="22.25" fill="rgb(0, 0, 0)" stroke="rgb(60, 60, 60)" stroke-width="1px" opacity="0.25"></line><line x1="0" y1="0" x2="260" y2="0" fill="rgb(0, 0, 0)" stroke="rgb(60, 60, 60)" stroke-width="1px" opacity="0.25"></line></g></g></g><g><g><line x1="0" y1="155.75" x2="260" y2="155.75" fill="rgb(0, 0, 0)" stroke="rgb(153, 153, 153)" stroke-width="1.5px"></line></g></g><g><g><line x1="28.888888888888886" y1="0" x2="28.888888888888886" y2="178" fill="rgb(0, 0, 0)" stroke="rgb(153, 153, 153)" stroke-width="1.5px"></line></g></g><g><g><g><g><g><path stroke="rgb(0, 119, 187)" stroke-width="2px" d="M33.22222222222222,-0.6437448297699007L34.666666666666664,27.6852728231664L36.111111111111114,45.133104446682836L37.55555555555555,64.7084028660182L39,74.92243634738247L40.44444444444444,81.50555944512183L41.88888888888889,86.94727345584862L43.33333333333333,89.1722458298412L44.77777777777778,93.1167714215733L46.22222222222222,96.89640724570239L47.666666666666664,100.0405071548489L49.11111111111111,106.74463968363828L50.55555555555556,112.34226077945996L52,115.84749392754546L53.44444444444444,118.43836847509445L54.888888888888886,119.91123473136929L56.333333333333336,121.57100044870288L57.77777777777777,123.44878115492465L59.22222222222222,124.46886577694082L60.666666666666664,125.49857335605206L62.111111111111114,126.78761148233988L63.55555555555555,127.5786072262415L65,128.97500549471596L66.44444444444444,129.3731924732934L67.8888888888889,129.2235194573715L69.33333333333333,130.55472433648575L70.77777777777777,132.79610914169058L72.22222222222223,133.81133733612793L73.66666666666667,134.86331538669884L75.1111111111111,134.872623497169L76.55555555555556,135.52802147147892L78,135.78615327582497L79.44444444444446,136.3960334310901L80.88888888888889,136.7228598907543L82.33333333333333,137.20589812148395L83.77777777777779,137.1211903539459L85.22222222222223,137.2181402328144L86.66666666666666,137.67421260810198L88.11111111111111,137.99269116054464L89.55555555555556,138.23489540117814L91,138.02811548994404L92.44444444444444,138.94925378487764L93.88888888888889,139.65465153783586L95.33333333333333,139.80112618607055L96.77777777777779,139.91898006234476L98.22222222222221,140.303477409829L99.66666666666667,140.52359533175635L101.11111111111111,140.82386920648753L102.55555555555556,140.9067084669085L104,140.89635793520762L105.44444444444444,140.9041355646649L106.88888888888889,141.26694115429015L108.33333333333334,141.33390616019716L109.77777777777777,141.5036405958091L111.22222222222221,141.33644135207L112.66666666666667,141.49984977438527L114.11111111111111,141.9482780108784L115.55555555555554,142.159280207024L117,142.29943301759567L118.44444444444444,142.45006864049347L119.8888888888889,142.57768084196135L121.33333333333333,142.52283552804144L122.77777777777777,142.4126167716691L124.22222222222223,142.47187001448705L125.66666666666667,142.68425608824728L127.1111111111111,142.55988685199796L128.55555555555557,142.67232635699327L130,142.71499659777385L131.44444444444443,142.8576484911933L132.88888888888889,142.81581175430523L134.33333333333334,142.8695223248005L135.7777777777778,143.05151089228946L137.22222222222223,143.22285686343386L138.66666666666666,143.33294820356127L140.11111111111111,143.37706042932336L141.55555555555554,143.53346460982243L143,143.5242731627383L144.44444444444446,143.46716976139086L145.88888888888889,143.42588331101285L147.33333333333334,143.36601626668764L148.77777777777777,143.31073722708655L150.2222222222222,143.26703853134342L151.66666666666669,143.2226924842247L153.11111111111111,143.31610690634955L154.55555555555554,143.39658962591474L156,143.34535734516498L157.44444444444443,143.52626850420498L158.8888888888889,143.5986039554782L160.33333333333334,143.57299149497902L161.77777777777777,143.5758058909717L163.22222222222223,143.6768487229572L164.66666666666666,143.71890401371974L166.1111111111111,143.7062529721783L167.55555555555557,143.77661079075773L169,143.74343522508047L170.44444444444446,143.6600566797189L171.88888888888889,143.6116924871666L173.33333333333331,143.64079735876962L174.7777777777778,143.70281663453608L176.22222222222223,143.6990907375236L177.66666666666666,143.70918247959L179.11111111111111,143.72738251689964L180.55555555555554,143.8382741823524L182,143.79328603543593L183.44444444444446,143.75770973646837L184.88888888888889,143.82128630046395L186.33333333333334,143.81308538202717L187.77777777777777,143.77929853869657L189.2222222222222,143.8720541850753L190.66666666666666,143.92254748922844L192.11111111111111,143.90782767493414L193.55555555555557,143.94769846729992L195,143.9847233525858L196.44444444444443,144.00610746398524L197.88888888888889,143.97457649364878L199.33333333333334,143.9768269790693L200.7777777777778,143.95438266975617L202.22222222222223,143.98669373556228L203.66666666666666,144.01759108187278L205.11111111111111,143.98207860879646L206.55555555555554,144.00351948959965L208,143.92331212924037L209.44444444444446,143.9422914653964L210.88888888888889,144.00964931646746L212.33333333333334,144.03614601513695L213.77777777777777,144.00071452533274L215.2222222222222,143.95486161778373L216.66666666666669,143.9218708661681L218.11111111111111,143.92764338810724L219.55555555555554,143.9929421036301L221,144.05996448005263L222.44444444444443,144.04919095626067L223.8888888888889,143.99062738386894L225.33333333333334,143.9727159613903L226.77777777777777,143.90925964805206L228.22222222222223,143.93581755125166L229.66666666666666,143.96184354797919" style="fill: none;" fill="none"></path></g><g><path stroke="rgb(255, 112, 67)" stroke-width="2px" d="M39,-24.414378225480675L40.44444444444444,15.977388750487933L41.88888888888889,41.92820987206156L43.33333333333333,50.83048375984991L44.77777777777778,64.61369529095647L46.22222222222222,74.71550921007154L47.666666666666664,72.41492530850105L49.11111111111111,85.05992484549382L50.55555555555556,94.17326085490723L52,101.05700078990496L53.44444444444444,105.33253602795818L54.888888888888886,108.34808327041874L56.333333333333336,111.05167472883933L57.77777777777777,113.36446275504355L59.22222222222222,114.99864417937877L60.666666666666664,116.56347373933001L62.111111111111114,118.05736027933179L63.55555555555555,118.72079715550197L65,120.17263981056894L66.44444444444444,121.32024584320409L67.8888888888889,122.46632842455395L69.33333333333333,123.70571846699767L70.77777777777777,126.13122772575514L72.22222222222223,128.09774554200692L73.66666666666667,129.3695655903629L75.1111111111111,130.45659439347068L76.55555555555556,131.11041953420573L78,131.69946477669131L79.44444444444446,132.30842436465502L80.88888888888889,132.84145928543478L82.33333333333333,133.1784218026415L83.77777777777779,133.63359138027266L85.22222222222223,134.03335461178196L86.66666666666666,134.41553851777715L88.11111111111111,134.6771213202596L89.55555555555556,134.95480083542827L91,135.19728252880628L92.44444444444444,136.09706459195093L93.88888888888889,136.95447534839553L95.33333333333333,137.4114139210879L96.77777777777779,137.82276075624503L98.22222222222221,138.15168985516573L99.66666666666667,138.31028630196784L101.11111111111111,138.48692343569428L102.55555555555556,138.72547748353816L104,138.943581845162L105.44444444444444,139.1242127034331L106.88888888888889,139.23810001325234L108.33333333333334,139.2866287122615L109.77777777777777,139.43561256760842L111.22222222222221,139.5440923087678L112.66666666666667,139.6481904766983L114.11111111111111,140.12935210725962L115.55555555555554,140.41654868854891L117,140.6612114183967L118.44444444444444,140.82552556046363L119.8888888888889,140.92510805065325L121.33333333333333,141.04642562853246L122.77777777777777,141.2083612588807L124.22222222222223,141.28215801651533L125.66666666666667,141.36990290381772L127.1111111111111,141.49055596374802L128.55555555555557,141.49219213143067L130,141.5495938119958L131.44444444444443,141.58921206435505L132.88888888888889,141.64687372784553L134.33333333333334,141.70387825249762L135.7777777777778,141.91748202410076L137.22222222222223,142.11653270518488L138.66666666666666,142.20080868797612L140.11111111111111,142.21657860015776L141.55555555555554,142.19065559016647L143,142.2597476193306L144.44444444444446,142.33759216004245L145.88888888888889,142.41008699919584L147.33333333333334,142.4577130704796L148.77777777777777,142.49073324287238L150.2222222222222,142.52518959707655L151.66666666666669,142.58658491073547L153.11111111111111,142.63883338478894L154.55555555555554,142.61710195735958L156,142.6496338568032L157.44444444444443,142.7320476073612L158.8888888888889,142.80651693733267L160.33333333333334,142.86368997210715L161.77777777777777,142.86963356902123L163.22222222222223,142.91394939717605L164.66666666666666,142.91496803579898L166.1111111111111,142.9808740118484L167.55555555555557,142.99831215776646L169,142.99965351195044L170.44444444444446,143.07360187107585L171.88888888888889,143.05904452473442L173.33333333333331,143.04576974839327L174.7777777777778,143.06753340130024L176.22222222222223,143.09147837559186L177.66666666666666,143.06758750191656L179.11111111111111,143.13078924913077L180.55555555555554,143.17500199263122L182,143.22634867957714L183.44444444444446,143.29261644225124L184.88888888888889,143.31040084840953L186.33333333333334,143.31101423420867L187.77777777777777,143.30482701350354L189.2222222222222,143.3297245394988L190.66666666666666,143.32681532388125L192.11111111111111,143.33987884935715L193.55555555555557,143.35104607177306L195,143.35740740744345L196.44444444444443,143.37576290729703L197.88888888888889,143.36115904838297L199.33333333333334,143.38143171474235L200.7777777777778,143.432364421608L202.22222222222223,143.43528585143068L203.66666666666666,143.45639946501092L205.11111111111111,143.47646568497998L206.55555555555554,143.46911228326337L208,143.45912215843236L209.44444444444446,143.49430320060964L210.88888888888889,143.50649330268052L212.33333333333334,143.54639745128074L213.77777777777777,143.4882484066L215.2222222222222,143.48645902082853L216.66666666666669,143.5379225981961L218.11111111111111,143.52204495349875L219.55555555555554,143.5133783266627L221,143.50439854151216L222.44444444444443,143.51581874369106L223.8888888888889,143.52446136902788L225.33333333333334,143.554290820034L226.77777777777777,143.56192919395085L228.22222222222223,143.58399763956825L229.66666666666666,143.5612955527222L231.1111111111111,143.50978619925428" style="fill: none;" fill="none"></path></g></g></g></g><g opacity="0.2"><g><g><g><path stroke="rgb(0, 119, 187)" stroke-width="2px" d="M30.333333333333332,-4.589784779353067L31.777777777777775,8.714340097969398L33.22222222222222,45.35849121212959L34.666666666666664,64.67163827084005L36.111111111111114,69.26973680139054L37.55555555555555,92.7013928104425L39,89.81459521793296L40.44444444444444,91.21438730845695L41.88888888888889,95.02758456266021L43.33333333333333,92.48952405515594L44.77777777777778,99.01209387509154L46.22222222222222,102.55351981514833L47.666666666666664,104.7504973995383L49.11111111111111,116.79295802069828L50.55555555555556,120.73474454710959L52,121.10386035247939L53.44444444444444,122.32402247365098L54.888888888888886,122.12030973943183L56.333333333333336,124.0604973155423L57.77777777777777,126.26534923230065L59.22222222222222,125.99895914364606L60.666666666666664,127.04311439493904L62.111111111111114,128.7211534018861L63.55555555555555,128.7650952200347L65,131.06959694242687L66.44444444444444,129.9704719223082L67.8888888888889,128.99901016327203L69.33333333333333,132.55153042892925L70.77777777777777,136.15818511071848L72.22222222222223,135.3341792911233L73.66666666666667,136.44128225324675L75.1111111111111,134.8865856617631L76.55555555555556,136.511118385999L78,136.17335097125033L79.44444444444446,137.3108536482614L80.88888888888889,137.21309957519406L82.33333333333333,137.9304554630944L83.77777777777779,136.99412870311062L85.22222222222223,137.3635650507931L86.66666666666666,138.35832117011887L88.11111111111111,138.4704089888255L89.55555555555556,138.59820176195353L91,137.71794562318246L92.44444444444444,140.33096122703864L93.88888888888889,140.71274816716323L95.33333333333333,140.02083815840888L96.77777777777779,140.0957608767494L98.22222222222221,140.8802234310424L99.66666666666667,140.85377221464296L101.11111111111111,141.2742800185806L102.55555555555556,141.03096735753934L104,140.8808321376564L105.44444444444444,140.91580200885073L106.88888888888889,141.81114953872748L108.33333333333334,141.4343536690576L109.77777777777777,141.7582422492269L111.22222222222221,141.08564248646144L112.66666666666667,141.7449624078581L114.11111111111111,142.62092036561808L115.55555555555554,142.4757835012424L117,142.50966223345313L118.44444444444444,142.67602207484015L119.8888888888889,142.7690991441632L121.33333333333333,142.44056755716156L122.77777777777777,142.24728863711061L124.22222222222223,142.56074987871398L125.66666666666667,143.00283519888762L127.1111111111111,142.37333299762395L128.55555555555557,142.84098561448627L130,142.77900195894472L131.44444444444443,143.07162633132248L132.88888888888889,142.75305664897314L134.33333333333334,142.9500881805434L135.7777777777778,143.3244937435229L137.22222222222223,143.47987582015048L138.66666666666666,143.49808521375235L140.11111111111111,143.4432287679665L141.55555555555554,143.76807088057103L143,143.51048599211208L144.44444444444446,143.3815146593697L145.88888888888889,143.3639536354458L147.33333333333334,143.27621570019983L148.77777777777777,143.22781866768491L150.2222222222222,143.20149048772873L151.66666666666669,143.15617341354664L153.11111111111111,143.45622853953682L154.55555555555554,143.5173137052625L156,143.26850892404036L157.44444444444443,143.79763524276495L158.8888888888889,143.70710713238805L160.33333333333334,143.53457280423027L161.77777777777777,143.58002748496074L163.22222222222223,143.82841297093546L164.66666666666666,143.7819869498635L166.1111111111111,143.68727640986617L167.55555555555557,143.88214751862688L169,143.69367187656462L170.44444444444446,143.53498886167654L171.88888888888889,143.53914619833813L173.33333333333331,143.68445466617413L174.7777777777778,143.79584554818575L176.22222222222223,143.69350189200486L177.66666666666666,143.7243200926896L179.11111111111111,143.7546825728641L180.55555555555554,144.00461168053153L182,143.72580381506123L183.44444444444446,143.70434528801707L184.88888888888889,143.9166511464573L186.33333333333334,143.80078400437196L187.77777777777777,143.7286182737007L189.2222222222222,144.01118765464344L190.66666666666666,143.99828744545812L192.11111111111111,143.88574795349268L193.55555555555557,144.0075046558486L195,144.04026068051462L196.44444444444443,144.0381836310844L197.88888888888889,143.9272800381441L199.33333333333334,143.98020270720008L200.7777777777778,143.92071620578645L202.22222222222223,144.0351603342715L203.66666666666666,144.06393710133852L205.11111111111111,143.92880989918194L206.55555555555554,144.03568081080448L208,143.80300108870142L209.44444444444446,143.97076046963048L210.88888888888889,144.11068609307404L212.33333333333334,144.07589106314117L213.77777777777777,143.94756729062647L215.2222222222222,143.8860822564602L216.66666666666669,143.87238473874459L218.11111111111111,143.936302171016L219.55555555555554,144.0908901769144L221,144.1604980446864L222.44444444444443,144.03303067057277L223.8888888888889,143.90278202528134L225.33333333333334,143.9458488276723L226.77777777777777,143.81407517804473L228.22222222222223,143.97565440605104L229.66666666666666,144.00088254307047" style="fill: none;" fill="none"></path></g><g><path stroke="rgb(255, 112, 67)" stroke-width="2px" d="M33.22222222222222,-10.43202134850435L34.666666666666664,23.969201307510957L36.111111111111114,44.20008367206901L37.55555555555555,59.921460220823064L39,68.57269649673253L40.44444444444444,75.54739934322424L41.88888888888889,80.4621548251016L43.33333333333333,64.10315162257757L44.77777777777778,85.21350495913066L46.22222222222222,89.83524591359311L47.666666666666664,68.96855653950479L49.11111111111111,104.01256042870229L50.55555555555556,107.83683743840085L52,111.37969772436192L53.44444444444444,111.74475332710428L54.888888888888886,112.87094474583866L56.333333333333336,115.10681479750201L57.77777777777777,116.83351795555791L59.22222222222222,117.44986254244577L60.666666666666664,118.91068718442693L62.111111111111114,120.2981723928242L63.55555555555555,119.71594775433186L65,122.35039760172367L66.44444444444444,123.04165195574751L67.8888888888889,124.18545053707203L69.33333333333333,125.56480238900986L70.77777777777777,129.76949027334922L72.22222222222223,131.04752161426586L73.66666666666667,131.27729540984728L75.1111111111111,132.08713746836293L76.55555555555556,132.09115719847614L78,132.58303261510446L79.44444444444446,133.2218637308979L80.88888888888889,133.64101165835746L82.33333333333333,133.68386557532358L83.77777777777779,134.31634574418422L85.22222222222223,134.63299945770996L86.66666666666666,134.98881437600357L88.11111111111111,135.0694955236686L89.55555555555556,135.37132010798086L91,135.56100506876828L92.44444444444444,137.44673768643406L93.88888888888889,138.24059148292872L95.33333333333333,138.0968217800837L96.77777777777779,138.43978100895765L98.22222222222221,138.64508350353572L99.66666666666667,138.54818097216776L101.11111111111111,138.7518791362818L102.55555555555556,139.0833085553022L104,139.2707383875968L105.44444444444444,139.39515899083926L106.88888888888889,139.40893097798107L108.33333333333334,139.35942176077515L109.77777777777777,139.65908835062874L111.22222222222221,139.70681192050688L112.66666666666667,139.80433772859396L114.11111111111111,140.85109455310158L115.55555555555554,140.84734356048284L117,141.02820551316836L118.44444444444444,141.07199677356402L119.8888888888889,141.07448178593768L121.33333333333333,141.2284019953513L122.77777777777777,141.451264704403L124.22222222222223,141.3928531529673L125.66666666666667,141.5015202347713L127.1111111111111,141.67153555364348L128.55555555555557,141.49464638295467L130,141.6356963328435L131.44444444444443,141.6486394428939L132.88888888888889,141.73336622308125L134.33333333333334,141.78938503947575L135.7777777777778,142.23788768150553L137.22222222222223,142.415108726811L138.66666666666666,142.32722266216297L140.11111111111111,142.24023346843023L141.55555555555554,142.15177107517957L143,142.36338566307677L144.44444444444446,142.4543589711102L145.88888888888889,142.51882925792597L147.33333333333334,142.5291521774052L148.77777777777777,142.5402635014616L150.2222222222222,142.57687412838277L151.66666666666669,142.67867788122385L153.11111111111111,142.7172060958692L154.55555555555554,142.58450481621549L156,142.6984317059687L157.44444444444443,142.85566823319823L158.8888888888889,142.91822093228984L160.33333333333334,142.94944952426886L161.77777777777777,142.8785489643924L163.22222222222223,142.98042313940823L164.66666666666666,142.9164959937334L166.1111111111111,143.07973297592252L167.55555555555557,143.02446937664354L169,143.0016655432264L170.44444444444446,143.18452440976398L171.88888888888889,143.03720850522222L173.33333333333331,143.0258575838816L174.7777777777778,143.10017888066068L176.22222222222223,143.12739583702933L177.66666666666666,143.0317511914036L179.11111111111111,143.22559186995204L180.55555555555554,143.24132110788196L182,143.303368709996L183.44444444444446,143.3920180862624L184.88888888888889,143.33707745764696L186.33333333333334,143.3119343129074L187.77777777777777,143.29554618244583L189.2222222222222,143.3670708284917L190.66666666666666,143.32245150045492L192.11111111111111,143.35947413757094L193.55555555555557,143.36779690539697L195,143.36694941094902L196.44444444444443,143.40329615707742L197.88888888888889,143.3392532600119L199.33333333333334,143.41184071428142L200.7777777777778,143.5087634819065L202.22222222222223,143.43966799616464L203.66666666666666,143.48806988538126L205.11111111111111,143.50656501493359L206.55555555555554,143.4580821806885L208,143.4441369711858L209.44444444444446,143.54707476387557L210.88888888888889,143.52477845578687L212.33333333333334,143.60625367418106L213.77777777777777,143.4010248395789L215.2222222222222,143.4837749421713L216.66666666666669,143.61511796424747L218.11111111111111,143.49822848645272L219.55555555555554,143.50037838640856L221,143.4909288637864L222.44444444444443,143.5329490469594L223.8888888888889,143.53742530703312L225.33333333333334,143.5990349965432L226.77777777777777,143.57338675482606L228.22222222222223,143.6171003079944L229.66666666666666,143.52724242245313L231.1111111111111,143.4325221690524" style="fill: none;" fill="none"></path></g></g></g></g></g></g><g transform="translate(70, 178)" clip-path="url(#clip_1)"><clipPath id="clip_1"><rect width="260" height="22"></rect></clipPath><g><g><line x1="0" y1="0" x2="0" y2="5" style="visibility: inherit;" fill="rgb(0, 0, 0)" stroke="rgb(204, 204, 204)" stroke-width="1px"></line><line x1="28.888888888888886" y1="0" x2="28.888888888888886" y2="5" style="visibility: inherit;" fill="rgb(0, 0, 0)" stroke="rgb(204, 204, 204)" stroke-width="1px"></line><line x1="57.77777777777777" y1="0" x2="57.77777777777777" y2="5" style="visibility: inherit;" fill="rgb(0, 0, 0)" stroke="rgb(204, 204, 204)" stroke-width="1px"></line><line x1="86.66666666666666" y1="0" x2="86.66666666666666" y2="5" style="visibility: inherit;" fill="rgb(0, 0, 0)" stroke="rgb(204, 204, 204)" stroke-width="1px"></line><line x1="115.55555555555554" y1="0" x2="115.55555555555554" y2="5" style="visibility: inherit;" fill="rgb(0, 0, 0)" stroke="rgb(204, 204, 204)" stroke-width="1px"></line><line x1="144.44444444444446" y1="0" x2="144.44444444444446" y2="5" style="visibility: inherit;" fill="rgb(0, 0, 0)" stroke="rgb(204, 204, 204)" stroke-width="1px"></line><line x1="173.33333333333331" y1="0" x2="173.33333333333331" y2="5" style="visibility: inherit;" fill="rgb(0, 0, 0)" stroke="rgb(204, 204, 204)" stroke-width="1px"></line><line x1="202.22222222222223" y1="0" x2="202.22222222222223" y2="5" style="visibility: inherit;" fill="rgb(0, 0, 0)" stroke="rgb(204, 204, 204)" stroke-width="1px"></line><line x1="231.1111111111111" y1="0" x2="231.1111111111111" y2="5" style="visibility: inherit;" fill="rgb(0, 0, 0)" stroke="rgb(204, 204, 204)" stroke-width="1px"></line><line x1="260" y1="0" x2="260" y2="5" style="visibility: inherit;" fill="rgb(0, 0, 0)" stroke="rgb(204, 204, 204)" stroke-width="1px"></line></g><g transform="translate(0, 8)"><text x="0" y="0" dx="0em" dy="0.95em" style="text-anchor: middle; visibility: hidden; font-family: &quot;Helvetica Neue&quot;, sans-serif; font-size: 12px; font-weight: 200;" fill="rgb(50, 49, 63)" stroke="none" stroke-width="1px">-20</text><text x="28.888888888888886" y="0" dx="0em" dy="0.95em" style="text-anchor: middle; visibility: inherit; font-family: &quot;Helvetica Neue&quot;, sans-serif; font-size: 12px; font-weight: 200;" fill="rgb(50, 49, 63)" stroke="none" stroke-width="1px">0</text><text x="57.77777777777777" y="0" dx="0em" dy="0.95em" style="text-anchor: middle; visibility: inherit; font-family: &quot;Helvetica Neue&quot;, sans-serif; font-size: 12px; font-weight: 200;" fill="rgb(50, 49, 63)" stroke="none" stroke-width="1px">20</text><text x="86.66666666666666" y="0" dx="0em" dy="0.95em" style="text-anchor: middle; visibility: inherit; font-family: &quot;Helvetica Neue&quot;, sans-serif; font-size: 12px; font-weight: 200;" fill="rgb(50, 49, 63)" stroke="none" stroke-width="1px">40</text><text x="115.55555555555554" y="0" dx="0em" dy="0.95em" style="text-anchor: middle; visibility: inherit; font-family: &quot;Helvetica Neue&quot;, sans-serif; font-size: 12px; font-weight: 200;" fill="rgb(50, 49, 63)" stroke="none" stroke-width="1px">60</text><text x="144.44444444444446" y="0" dx="0em" dy="0.95em" style="text-anchor: middle; visibility: inherit; font-family: &quot;Helvetica Neue&quot;, sans-serif; font-size: 12px; font-weight: 200;" fill="rgb(50, 49, 63)" stroke="none" stroke-width="1px">80</text><text x="173.33333333333331" y="0" dx="0em" dy="0.95em" style="text-anchor: middle; visibility: inherit; font-family: &quot;Helvetica Neue&quot;, sans-serif; font-size: 12px; font-weight: 200;" fill="rgb(50, 49, 63)" stroke="none" stroke-width="1px">100</text><text x="202.22222222222223" y="0" dx="0em" dy="0.95em" style="text-anchor: middle; visibility: inherit; font-family: &quot;Helvetica Neue&quot;, sans-serif; font-size: 12px; font-weight: 200;" fill="rgb(50, 49, 63)" stroke="none" stroke-width="1px">120</text><text x="231.1111111111111" y="0" dx="0em" dy="0.95em" style="text-anchor: middle; visibility: inherit; font-family: &quot;Helvetica Neue&quot;, sans-serif; font-size: 12px; font-weight: 200;" fill="rgb(50, 49, 63)" stroke="none" stroke-width="1px">140</text><text x="260" y="0" dx="0em" dy="0.95em" style="text-anchor: middle; visibility: hidden; font-family: &quot;Helvetica Neue&quot;, sans-serif; font-size: 12px; font-weight: 200;" fill="rgb(50, 49, 63)" stroke="none" stroke-width="1px">160</text></g><line x1="0" y1="0" x2="260" y2="0" fill="rgb(0, 0, 0)" stroke="rgb(204, 204, 204)" stroke-width="1px"></line></g></g></g></g></svg>